<?xml version="1.0" standalone="no"?>
<!DOCTYPE svg PUBLIC "-//W3C//DTD SVG 20010904//EN"
 "http://www.w3.org/TR/2001/REC-SVG-20010904/DTD/svg10.dtd">
<svg version="1.0" xmlns="http://www.w3.org/2000/svg"
 width="200.000000pt" height="200.000000pt" viewBox="0 0 200.000000 200.000000"
 preserveAspectRatio="xMidYMid meet">

<g transform="translate(0.000000,200.000000) scale(0.100000,-0.100000)"
fill="currentcolor" stroke="currentcolor">
<path d="M314 1768 c-5 -7 -8 -33 -9 -58 l0 -45 -85 -3 c-46 -2 -90 -8 -97
-14 -18 -15 -19 -1468 -1 -1486 17 -17 799 -17 816 0 17 17 17 1469 0 1486 -7
7 -39 12 -75 12 l-63 0 0 48 c0 26 -5 53 -12 60 -17 17 -464 17 -474 0z m401
-88 c0 -13 -26 -15 -162 -18 -159 -2 -163 -2 -163 18 0 20 4 20 163 18 136 -3
162 -5 162 -18z m153 -772 l2 -668 -335 0 -335 0 0 670 0 670 333 -2 332 -3 3
-667z"/>
<path d="M348 1439 c-21 -12 -24 -49 -6 -67 8 -8 64 -12 184 -12 144 0 175 3
188 16 21 20 20 37 -2 57 -16 14 -44 17 -183 17 -93 0 -172 -5 -181 -11z"/>
<path d="M342 1238 c-7 -7 -12 -20 -12 -29 0 -35 23 -40 205 -37 157 3 179 5
189 21 8 12 8 22 0 35 -10 15 -32 17 -190 20 -131 2 -183 -1 -192 -10z"/>
<path d="M342 1048 c-18 -18 -14 -56 7 -68 11 -6 88 -10 178 -10 127 0 163 3
181 16 26 18 28 37 6 58 -13 13 -44 16 -188 16 -120 0 -176 -4 -184 -12z"/>
<path d="M342 848 c-18 -18 -14 -56 7 -68 11 -6 88 -10 178 -10 127 0 163 3
181 16 26 18 28 37 6 58 -13 13 -44 16 -188 16 -120 0 -176 -4 -184 -12z"/>
<path d="M342 648 c-18 -18 -14 -56 7 -68 11 -6 88 -10 178 -10 127 0 163 3
181 16 26 18 28 37 6 58 -13 13 -44 16 -188 16 -120 0 -176 -4 -184 -12z"/>
<path d="M340 446 c-6 -8 -10 -25 -8 -38 3 -23 3 -23 189 -26 158 -2 188 0
199 13 10 12 10 21 2 40 l-12 25 -179 0 c-143 0 -181 -3 -191 -14z"/>
<path d="M1376 1531 c-138 -140 -157 -162 -154 -187 2 -22 9 -30 28 -32 20 -2
47 19 140 113 63 63 118 115 122 115 4 0 9 -100 10 -222 l3 -223 23 -3 c50 -7
52 4 52 237 l0 216 118 -118 c104 -104 123 -118 148 -115 24 2 29 8 29 30 0
22 -32 60 -159 188 -106 106 -167 160 -181 160 -14 0 -74 -54 -179 -159z"/>
<path d="M1527 773 c-4 -3 -7 -105 -7 -227 l0 -220 -119 118 c-103 101 -123
117 -148 114 -22 -2 -29 -9 -31 -32 -3 -25 16 -47 154 -187 102 -102 165 -159
179 -159 24 0 345 317 345 341 0 21 -20 39 -44 39 -13 0 -65 -45 -138 -117
l-118 -118 0 216 c0 154 -3 218 -12 227 -13 13 -50 16 -61 5z"/>
</g>
</svg>
