<?xml version="1.0" standalone="no"?>
<!DOCTYPE svg PUBLIC "-//W3C//DTD SVG 20010904//EN"
 "http://www.w3.org/TR/2001/REC-SVG-20010904/DTD/svg10.dtd">
<svg version="1.0" xmlns="http://www.w3.org/2000/svg"
 width="800.000000pt" height="600.000000pt" viewBox="0 0 800.000000 600.000000"
 preserveAspectRatio="xMidYMid meet">

<g transform="translate(-300.0000000,810.000000) scale(0.170000,-0.170000)"
fill="#000000" stroke="none">
<path d="M4385 4745 c-14 -13 -25 -33 -25 -43 0 -28 38 -72 63 -72 24 0 177
60 177 69 0 9 -152 71 -173 71 -10 0 -29 -11 -42 -25z m112 -17 c29 -12 53
-25 53 -28 0 -9 -102 -50 -126 -50 -27 0 -44 19 -44 50 0 54 35 62 117 28z"/>
<path d="M4655 4720 c-4 -12 -1 -27 5 -35 27 -33 78 -5 65 35 -4 14 -15 20
-35 20 -20 0 -31 -6 -35 -20z m50 -11 c0 -7 -8 -15 -17 -17 -18 -3 -25 18 -11
32 10 10 28 1 28 -15z"/>
<path d="M4729 4654 c-9 -11 -10 -20 -2 -32 24 -39 82 -15 68 28 -8 24 -47 27
-66 4z m49 -17 c2 -12 -3 -17 -17 -17 -12 0 -21 6 -21 13 0 31 32 34 38 4z"/>
<path d="M4650 4605 c30 -30 56 -55 57 -55 2 0 3 9 3 21 0 28 -62 89 -91 89
-21 0 -17 -6 31 -55z"/>
<path d="M4542 4628 c-16 -20 122 -158 140 -140 10 10 -2 27 -58 83 -57 57
-73 68 -82 57z"/>
<path d="M4483 4564 c-4 -11 15 -37 60 -82 57 -57 68 -64 82 -52 14 12 9 21
-52 82 -37 37 -71 68 -76 68 -4 0 -10 -7 -14 -16z"/>
<path d="M4728 4499 c-49 -106 -53 -128 -31 -158 25 -33 76 -40 105 -14 26 24
20 76 -19 163 l-29 64 -26 -55z m71 -120 c1 -34 -20 -51 -56 -47 -45 5 -50 41
-18 113 l27 60 24 -50 c12 -27 23 -62 23 -76z"/>
<path d="M4461 4478 c5 -18 9 -34 9 -36 0 -8 68 -42 85 -42 15 0 7 12 -35 55
-30 30 -58 55 -61 55 -4 0 -3 -15 2 -32z"/>
<path d="M4420 4410 c0 -5 7 -10 15 -10 8 0 15 5 15 10 0 6 -7 10 -15 10 -8 0
-15 -4 -15 -10z"/>
<path d="M4300 4383 c-8 -2 -21 -7 -29 -9 -8 -2 -11 -7 -8 -10 8 -8 77 7 77
17 0 10 -16 11 -40 2z"/>
<path d="M4147 4324 c-15 -8 -27 -19 -27 -24 0 -14 5 -13 41 9 37 23 26 35
-14 15z"/>
<path d="M4017 4222 c-16 -17 -24 -32 -19 -36 12 -7 55 39 50 54 -2 6 -16 -2
-31 -18z"/>
<path d="M3925 4096 c-9 -14 -15 -31 -13 -38 3 -7 12 2 22 20 21 41 14 54 -9
18z"/>
<path d="M3866 3938 c-6 -28 -2 -48 8 -37 10 11 17 69 8 69 -5 0 -12 -14 -16
-32z"/>
<path d="M4573 3818 c-35 -115 -43 -162 -27 -145 3 2 20 58 39 123 20 65 38
127 41 137 3 9 1 17 -4 17 -5 0 -27 -60 -49 -132z"/>
<path d="M3414 3913 c3 -10 21 -72 41 -137 36 -122 40 -133 48 -119 6 12 -75
273 -85 273 -5 0 -7 -8 -4 -17z"/>
<path d="M3835 3779 c-9 -39 -5 -42 33 -23 38 19 42 33 7 26 -20 -3 -24 -1
-19 12 3 9 2 16 -4 16 -6 0 -13 -14 -17 -31z"/>
<path d="M3990 3790 c0 -10 61 -32 68 -25 8 8 -2 15 -37 25 -17 5 -31 5 -31 0z"/>
<path d="M4832 3664 c-67 -36 -122 -70 -122 -75 0 -10 222 102 244 122 30 27
-14 10 -122 -47z"/>
<path d="M3080 3702 c0 -9 11 -16 143 -86 59 -32 107 -53 107 -48 0 8 -231
142 -246 142 -2 0 -4 -3 -4 -8z"/>
<path d="M3730 3680 c-12 -17 -19 -34 -16 -37 3 -4 7 -4 9 -2 1 2 12 16 25 30
14 16 19 29 14 33 -6 3 -20 -8 -32 -24z"/>
<path d="M4111 3683 c0 -10 4 -27 9 -38 7 -17 9 -15 9 12 1 17 -3 35 -9 38 -5
3 -10 -2 -9 -12z"/>
<path d="M3812 3624 c2 -20 8 -39 14 -41 6 -2 8 10 6 32 -6 48 -24 57 -20 9z"/>
<path d="M3666 3559 c-13 -40 -15 -69 -7 -69 11 0 27 68 17 77 -3 3 -8 0 -10
-8z"/>
<path d="M4055 3530 c-34 -35 -18 -40 21 -7 16 14 23 26 17 30 -5 3 -23 -7
-38 -23z"/>
<path d="M3880 3512 c0 -8 50 -32 66 -32 12 0 1 19 -13 23 -10 2 -26 8 -35 12
-10 4 -18 3 -18 -3z"/>
<path d="M3664 3380 c3 -19 11 -39 17 -45 8 -7 9 0 4 25 -4 19 -12 40 -17 45
-7 7 -9 -1 -4 -25z"/>
<path d="M3348 3192 l-627 -187 -255 -225 c-141 -124 -256 -228 -256 -231 0
-3 114 -48 253 -100 l252 -94 5 -315 5 -314 638 -239 637 -240 638 240 637
239 5 314 5 315 253 94 c139 52 251 98 250 102 -2 4 -117 108 -256 231 l-252
223 -633 188 c-347 103 -641 187 -652 187 -11 -1 -302 -85 -647 -188z m1250
-14 c320 -94 577 -175 570 -179 -7 -3 -273 -95 -590 -204 l-577 -198 -592 204
c-326 111 -586 205 -578 208 110 36 1141 339 1159 340 14 1 287 -76 608 -171z
m-1204 -403 c313 -107 571 -195 574 -195 2 0 -68 -69 -155 -152 -87 -84 -199
-192 -249 -240 l-90 -88 -590 221 c-324 121 -598 224 -608 228 -16 6 23 45
229 228 l249 221 36 -14 c19 -7 291 -101 604 -209z m2125 -20 c186 -164 221
-200 205 -206 -10 -4 -284 -107 -608 -228 l-590 -221 -90 88 c-50 48 -160 154
-245 235 -84 82 -150 151 -146 155 3 4 275 100 603 213 l597 206 25 -22 c14
-12 126 -111 249 -220z m-1506 -182 c-7 -2 -19 -2 -25 0 -7 3 -2 5 12 5 14 0
19 -2 13 -5z m-23 -654 c0 -612 -1 -630 -19 -627 -10 2 -289 104 -620 228
l-601 225 0 299 c0 280 1 298 18 291 9 -4 174 -65 365 -137 l349 -131 81 80
c158 154 419 403 423 403 2 0 4 -284 4 -631z m335 337 l195 -188 347 130 c192
72 356 133 366 137 16 7 17 -11 17 -291 l0 -299 -601 -225 c-331 -124 -610
-226 -620 -228 -18 -3 -19 15 -19 629 l0 632 60 -54 c33 -30 147 -139 255
-243z"/>
<path d="M3726 3262 c-3 -5 8 -22 24 -37 21 -20 30 -24 30 -14 0 20 -46 63
-54 51z"/>
<path d="M3840 3142 c0 -14 49 -56 57 -49 3 4 -4 18 -17 32 -24 25 -40 32 -40
17z"/>
<path d="M3950 3031 c0 -10 53 -51 66 -51 4 0 -5 14 -21 30 -29 30 -45 38 -45
21z"/>
<path d="M4070 2922 c0 -5 7 -15 15 -22 8 -7 15 -8 15 -2 0 5 -7 15 -15 22 -8
7 -15 8 -15 2z"/>
<path d="M2610 2820 c0 -5 7 -10 15 -10 8 0 15 5 15 10 0 6 -7 10 -15 10 -8 0
-15 -4 -15 -10z"/>
<path d="M2557 2783 c-12 -11 -8 -23 7 -23 7 0 19 7 26 15 10 12 9 15 -7 15
-11 0 -23 -3 -26 -7z"/>
<path d="M2491 2724 c-33 -23 -11 -41 23 -19 14 10 26 21 26 26 0 14 -23 11
-49 -7z"/>
<path d="M2377 2623 c-31 -27 -56 -51 -56 -54 -1 -7 244 -99 265 -99 8 0 14 4
14 9 0 9 -23 19 -169 72 l-64 23 53 48 c74 66 35 66 -43 1z"/>
<path d="M4377 2303 c-11 -10 13 -32 29 -26 11 4 12 9 3 19 -13 15 -22 18 -32
7z"/>
<path d="M4431 2253 c-16 -7 86 -113 109 -113 8 0 72 21 142 47 93 35 124 50
117 59 -7 9 -39 1 -125 -32 -64 -24 -121 -44 -127 -44 -6 0 -32 20 -57 44 -25
24 -51 41 -59 39z"/>
<path d="M3796 1571 c-132 -113 -149 -132 -129 -138 11 -4 286 231 285 243 -1
23 -28 5 -156 -105z"/>
<path d="M3815 1503 c-43 -36 -62 -60 -56 -66 10 -10 17 -6 103 67 42 35 53
56 28 56 -5 0 -38 -25 -75 -57z"/>
<path d="M4135 1999 c-4 -6 2 -20 12 -32 11 -12 100 -116 198 -230 115 -134
182 -204 188 -198 6 6 3 18 -9 33 -41 51 -376 438 -379 438 -2 0 -7 -5 -10
-11z"/>
<path d="M4135 1840 c-7 -12 174 -222 187 -218 5 2 9 8 7 13 -2 13 -172 214
-181 214 -4 1 -10 -4 -13 -9z"/>
<path d="M4726 3341 c13 -13 255 -83 262 -76 9 8 3 10 -125 49 -126 37 -154
43 -137 27z"/>
<path d="M3170 3293 c-120 -36 -127 -39 -118 -49 7 -6 249 65 263 77 17 16
-28 7 -145 -28z"/>
</g>
</svg>
