<?xml version="1.0" standalone="no"?>
<!DOCTYPE svg PUBLIC "-//W3C//DTD SVG 20010904//EN"
 "http://www.w3.org/TR/2001/REC-SVG-20010904/DTD/svg10.dtd">
<svg version="1.0" xmlns="http://www.w3.org/2000/svg"
 width="400.000000pt" height="300.000000pt" viewBox="0 0 400.000000 300.000000"
 preserveAspectRatio="xMidYMid meet">

<g transform="translate(0.000000,300.000000) scale(0.100000,-0.100000)"
fill="#000000" stroke="none">
<path d="M2163 2746 c-17 -6 -35 -15 -40 -20 -5 -5 -1 -6 10 -3 11 4 16 3 12
-4 -4 -6 -14 -8 -22 -5 -20 8 -39 -4 -23 -14 8 -5 7 -9 -5 -13 -9 -4 -13 -3
-10 3 11 18 -4 11 -55 -26 -28 -20 -48 -39 -45 -42 2 -3 13 2 22 10 10 8 25
18 33 23 8 4 2 -4 -15 -19 -16 -14 -36 -23 -43 -21 -13 5 -102 -54 -139 -92
-12 -13 -29 -23 -37 -23 -23 0 -28 -17 -10 -34 8 -9 11 -16 5 -16 -5 0 -14 8
-20 17 -8 14 -12 15 -25 4 -9 -7 -13 -18 -9 -24 3 -6 1 -7 -5 -3 -17 10 -71
-33 -65 -53 4 -13 3 -13 -5 -2 -11 16 -36 5 -26 -11 5 -7 2 -8 -5 -3 -7 4 -22
-1 -34 -12 -12 -11 -43 -34 -70 -52 -27 -19 -45 -37 -41 -43 4 -7 2 -8 -4 -4
-18 11 -37 -4 -21 -16 10 -7 9 -8 -5 -4 -11 4 -26 0 -37 -10 -22 -19 -25 -38
-6 -31 6 2 26 -2 42 -8 17 -7 66 -13 110 -14 235 -4 285 -13 285 -56 0 -8 7
-18 15 -21 8 -3 24 -21 36 -40 11 -19 26 -40 33 -47 6 -6 52 -68 101 -137 183
-256 231 -316 246 -312 8 3 37 23 65 44 28 21 55 38 61 38 5 0 18 8 29 18 20
19 234 173 396 286 54 37 101 73 105 80 5 7 29 27 56 46 26 18 47 38 47 44 0
14 -119 189 -215 316 -39 52 -103 139 -143 192 -55 74 -76 96 -89 91 -11 -4
-14 -3 -9 5 4 7 4 12 -1 12 -89 2 -346 12 -368 14 -16 2 -44 -2 -62 -8z m585
-230 c23 -16 42 -31 42 -35 0 -11 -17 -33 -25 -31 -4 1 -18 -7 -31 -19 -13
-11 -24 -18 -24 -15 0 3 -16 -7 -35 -22 -19 -14 -35 -31 -35 -36 0 -5 6 -4 13
2 6 6 26 20 42 30 17 11 40 27 53 36 l22 16 0 -55 0 -55 -62 -43 c-35 -23 -66
-46 -69 -51 -10 -16 -97 124 -104 168 l-6 41 78 56 c43 30 83 52 88 48 6 -3
29 -19 53 -35z"/>
<path d="M2633 2480 l-53 -38 25 -16 c31 -21 28 -21 78 15 47 34 51 46 22 65
-18 11 -26 8 -72 -26z"/>
<path d="M2719 2383 c-13 -15 -12 -15 9 -4 23 12 28 21 13 21 -5 0 -15 -7 -22
-17z"/>
<path d="M1420 2190 c-17 -11 -11 -19 19 -25 27 -5 84 -40 102 -62 12 -15 12
-16 -5 -10 -16 6 -17 5 -7 -7 7 -9 21 -18 32 -21 11 -4 16 -11 13 -17 -5 -7
-1 -7 12 0 14 8 29 2 76 -31 40 -28 54 -43 45 -49 -6 -4 -7 -8 -2 -8 43 0 25
23 -77 95 -62 44 -119 88 -127 98 -24 28 -65 47 -81 37z m164 -115 c11 -8 15
-15 10 -15 -6 0 -19 7 -30 15 -10 8 -14 14 -9 14 6 0 19 -6 29 -14z"/>
<path d="M1403 2139 c-1 -10 2 -19 8 -19 5 0 9 -11 9 -25 0 -14 5 -25 10 -25
6 0 10 7 10 15 0 19 19 20 26 1 3 -8 12 -17 19 -20 12 -4 12 0 3 19 -6 14 -16
25 -21 25 -5 0 -4 7 3 15 10 12 9 16 -5 21 -11 5 -21 1 -27 -10 -5 -9 -14 -14
-20 -10 -7 4 -6 9 2 14 9 5 8 9 -2 13 -9 3 -14 -2 -15 -14z"/>
<path d="M1337 2070 c-9 -11 -12 -20 -7 -20 6 0 13 -1 17 -2 3 -2 7 7 8 20 2
27 3 26 -18 2z"/>
<path d="M1518 2062 c-2 -4 -1 -29 3 -57 l6 -50 1 47 c1 26 7 48 14 50 8 3 6
7 -5 11 -9 3 -18 3 -19 -1z"/>
<path d="M1622 2014 c10 -10 20 -16 22 -13 3 3 -5 11 -17 18 -21 13 -21 12 -5
-5z"/>
<path d="M1262 2004 c-7 -8 -8 -14 -3 -14 10 0 25 19 20 25 -2 1 -10 -3 -17
-11z"/>
<path d="M1625 1980 c-3 -5 -1 -10 4 -10 6 0 11 5 11 10 0 6 -2 10 -4 10 -3 0
-8 -4 -11 -10z"/>
<path d="M1230 1970 c-9 -6 -10 -10 -3 -10 6 0 15 5 18 10 8 12 4 12 -15 0z"/>
<path d="M1750 1966 c0 -2 8 -10 18 -17 15 -13 16 -12 3 4 -13 16 -21 21 -21
13z"/>
<path d="M1797 1930 c10 -11 9 -16 -4 -25 -14 -10 -11 -12 14 -10 17 1 39 -4
49 -12 10 -7 12 -13 6 -13 -7 0 -12 -5 -12 -11 0 -8 5 -7 16 2 9 8 18 9 22 3
4 -5 33 -27 65 -48 31 -22 57 -42 57 -46 0 -3 -15 -20 -33 -38 -27 -26 -36
-30 -47 -20 -12 11 -12 10 -1 -4 11 -15 2 -27 -67 -99 -72 -73 -81 -79 -87
-60 -5 18 -8 19 -21 7 -18 -19 -18 -32 0 -17 10 9 15 8 19 -2 3 -7 -74 -94
-184 -207 -104 -107 -189 -190 -189 -184 0 5 -21 23 -46 39 -42 26 -44 30 -28
42 10 7 13 13 8 13 -6 0 -15 -5 -22 -12 -16 -16 -41 7 -38 37 2 16 -1 22 -10
18 -17 -6 -18 -23 -2 -23 6 0 9 -2 6 -5 -3 -3 -27 8 -53 26 -34 23 -43 34 -34
40 10 6 8 8 -6 7 -23 -2 -83 34 -67 40 6 2 23 -5 39 -15 15 -10 24 -12 19 -5
-10 16 -86 53 -97 46 -5 -3 -19 2 -31 10 -12 9 -18 16 -13 16 6 1 -3 8 -20 16
-16 8 -22 12 -11 9 18 -5 46 10 46 25 0 4 -11 7 -24 6 -13 0 -22 -4 -19 -8 8
-14 -10 -8 -30 10 -11 9 -17 11 -13 5 10 -18 -9 -16 -24 2 -15 18 -3 38 19 30
12 -5 13 -3 5 5 -9 9 -17 9 -32 1 -32 -17 -37 -13 -12 9 13 12 31 18 39 15 12
-5 13 -3 5 5 -9 9 -17 9 -32 1 -27 -14 -35 -14 -26 1 4 6 3 8 -3 5 -13 -8 -10
-42 7 -61 7 -9 110 -85 229 -168 119 -83 232 -164 252 -179 l36 -28 29 29 c16
16 32 30 35 30 3 0 5 -25 4 -55 -1 -30 2 -55 7 -55 5 0 46 26 91 57 45 32 76
50 70 42 -7 -9 -49 -40 -93 -70 l-79 -54 -1 -53 c0 -33 -4 -51 -10 -47 -5 3
-10 1 -10 -4 0 -6 -4 -11 -9 -11 -6 0 -12 17 -14 38 -2 20 -4 3 -5 -39 l-2
-76 43 10 43 9 124 -88 c69 -48 175 -123 235 -166 61 -44 134 -95 163 -115 32
-22 52 -43 52 -55 0 -11 -5 -16 -10 -13 -6 4 -27 -6 -48 -22 -20 -16 -62 -46
-93 -67 l-56 -37 -6 -67 c-4 -36 -3 -70 2 -75 13 -13 36 2 236 148 264 192
445 322 575 410 131 89 252 174 360 254 73 54 338 239 393 274 25 16 27 22 27
92 0 41 -2 75 -5 75 -3 0 -80 -52 -171 -116 -99 -70 -161 -120 -154 -124 8 -5
7 -9 -5 -14 -9 -3 -13 -11 -9 -17 4 -8 3 -9 -5 -5 -9 6 -9 11 0 22 19 23 -6
17 -38 -9 -15 -13 -57 -43 -93 -67 -36 -24 -69 -48 -75 -52 -5 -5 -61 -45
-123 -89 -66 -47 -110 -85 -106 -91 4 -7 2 -8 -4 -4 -7 4 -25 -1 -42 -11 -31
-18 -39 -33 -17 -33 8 0 7 -3 -3 -10 -13 -8 -12 -11 5 -25 19 -14 18 -15 -7
-4 -22 10 -25 15 -17 26 17 19 -2 15 -31 -7 -14 -11 -29 -20 -34 -20 -5 0 -32
17 -60 38 -58 45 -108 80 -221 157 -44 30 -93 65 -109 78 l-29 23 35 21 35 20
-47 194 c-27 107 -63 257 -81 335 l-33 141 -46 31 c-25 17 -79 54 -120 83 -41
28 -70 46 -63 39z m231 -212 c0 -13 8 -52 18 -88 20 -66 21 -100 3 -100 -6 0
-9 8 -8 18 1 9 0 31 -1 47 -2 29 -2 30 -9 5 -6 -18 -8 -8 -9 34 0 32 -5 63
-10 68 -7 7 -7 15 1 24 16 17 15 18 15 -8z m-40 -46 c5 -59 -10 -191 -21 -188
-7 1 -9 1 -4 -1 4 -3 7 -19 7 -36 0 -21 -3 -28 -9 -19 -5 9 -11 0 -17 -30 -8
-42 -9 -41 -12 30 -1 39 -5 72 -9 72 -3 0 -27 -17 -53 -37 -27 -21 -99 -74
-162 -118 -62 -44 -115 -82 -118 -85 -7 -7 -62 -44 -80 -55 -8 -4 16 24 54 63
38 39 73 69 78 66 5 -3 7 0 6 8 -2 7 3 12 10 10 8 -1 11 1 8 6 -3 5 17 33 45
63 45 49 271 279 273 279 1 0 2 -12 4 -28z m96 -187 c5 -22 4 -26 -4 -15 -5 8
-10 24 -10 34 0 26 6 18 14 -19z m-1059 -25 c-3 -5 -12 -10 -18 -10 -7 0 -6 4
3 10 19 12 23 12 15 0z m1072 -52 c-3 -7 -5 -2 -5 12 0 14 2 19 5 13 2 -7 2
-19 0 -25z m-1002 -28 c3 -5 2 -10 -4 -10 -5 0 -13 5 -16 10 -3 6 -2 10 4 10
5 0 13 -4 16 -10z m1012 -52 c-3 -7 -5 -2 -5 12 0 14 2 19 5 13 2 -7 2 -19 0
-25z m-208 9 c-12 -10 -206 -144 -218 -151 -9 -6 -12 -5 -8 1 4 6 52 41 108
79 55 38 103 72 106 77 3 5 8 6 11 3 3 -3 3 -7 1 -9z m1481 -41 c0 -3 -4 -8
-10 -11 -5 -3 -10 -1 -10 4 0 6 5 11 10 11 6 0 10 -2 10 -4z m-300 -211 c-13
-14 -26 -22 -29 -19 -3 3 5 14 19 24 34 27 38 25 10 -5z m-150 -105 c-14 -11
-29 -20 -35 -20 -5 0 4 9 20 20 38 25 48 25 15 0z m-110 -50 c13 -9 13 -10 0
-10 -13 0 -13 -1 0 -11 13 -9 13 -10 0 -6 -8 2 -14 10 -12 16 4 19 -13 12 -38
-14 -13 -14 -27 -25 -32 -25 -5 0 6 14 24 30 36 33 37 34 58 20z m-1343 -20
c1 -16 -1 -17 -12 -7 -11 10 -8 19 10 27 1 0 1 -9 2 -20z m-22 -19 c3 -5 2
-12 -3 -15 -5 -3 -9 1 -9 9 0 17 3 19 12 6z m1235 -75 c0 -2 -8 -10 -17 -17
-16 -13 -17 -12 -4 4 13 16 21 21 21 13z m-183 -142 c-3 -3 -11 -6 -19 -8 -7
-1 -19 -5 -25 -9 -7 -5 -13 -4 -13 2 0 5 5 11 11 13 19 6 52 7 46 2z m-236
-167 c-8 -8 -14 -7 -23 2 -11 10 -9 11 6 5 15 -6 17 -4 11 6 -6 9 -4 11 4 5 9
-5 10 -10 2 -18z m-136 -87 c3 -5 1 -10 -4 -10 -6 0 -11 5 -11 10 0 6 2 10 4
10 3 0 8 -4 11 -10z m-60 -10 c3 -5 1 -10 -4 -10 -6 0 -11 5 -11 10 0 6 2 10
4 10 3 0 8 -4 11 -10z m-63 -37 c-6 -2 -10 -8 -8 -12 3 -4 -1 -8 -9 -8 -11 0
-12 4 -4 14 6 7 17 13 23 12 7 0 6 -2 -2 -6z m-105 -85 c-3 -8 -6 -5 -6 6 -1
11 2 17 5 13 3 -3 4 -12 1 -19z m48 2 c4 -6 -1 -7 -11 -3 -11 4 -15 2 -11 -4
4 -6 0 -14 -8 -17 -13 -4 -14 -2 -5 14 12 22 25 26 35 10z"/>
<path d="M1876 1569 c-11 -11 -15 -19 -9 -19 12 0 38 28 32 34 -2 2 -13 -5
-23 -15z"/>
<path d="M1833 1479 c-2 -17 1 -18 12 -9 8 7 12 16 9 21 -9 16 -20 10 -21 -12z"/>
<path d="M1187 1914 c5 -14 3 -16 -11 -11 -9 4 -14 3 -11 -2 3 -5 -3 -12 -12
-14 -10 -2 -4 -4 13 -3 21 1 31 6 31 18 1 10 -2 20 -8 23 -5 4 -6 -2 -2 -11z"/>
<path d="M1840 1830 c0 -5 5 -10 11 -10 5 0 7 5 4 10 -3 6 -8 10 -11 10 -2 0
-4 -4 -4 -10z"/>
<path d="M1100 1810 c8 -5 20 -10 25 -10 6 0 3 5 -5 10 -8 5 -19 10 -25 10 -5
0 -3 -5 5 -10z"/>
<path d="M1900 1809 c-12 -9 -12 -10 4 -5 10 4 26 1 35 -6 14 -12 14 -11 2 5
-16 20 -21 21 -41 6z"/>
<path d="M2753 1723 l-123 -88 0 -107 c0 -98 2 -107 18 -102 9 3 1 -9 -19 -28
-52 -48 -79 -69 -79 -60 0 4 -5 0 -10 -8 -7 -10 -10 22 -10 101 0 64 -3 118
-6 121 -3 4 -45 -22 -92 -56 l-87 -63 -5 -139 c-4 -111 -8 -138 -19 -136 -10
2 -12 -6 -9 -28 3 -16 1 -30 -3 -30 -4 0 -10 12 -12 28 -3 22 -5 19 -7 -13
l-3 -40 -7 35 -7 35 -2 -42 c-1 -30 3 -41 12 -38 6 2 129 33 273 69 143 36
273 70 288 76 47 17 63 13 70 -20 4 -22 11 -30 26 -30 12 0 116 68 233 151
117 83 219 154 227 159 8 5 13 10 10 13 -3 2 -72 50 -155 108 -82 57 -181 127
-220 155 -38 29 -73 50 -77 48 -4 -3 -8 -44 -8 -91 0 -48 -3 -84 -6 -80 -3 3
-15 -3 -27 -13 -11 -11 -23 -18 -25 -15 -3 2 -8 52 -11 110 l-6 106 -122 -88z
m86 -31 c1 -45 -2 -62 -16 -74 -16 -15 -152 -108 -156 -108 -1 0 -2 28 -2 62
0 58 2 64 30 83 17 11 47 33 67 48 20 16 42 26 48 22 6 -4 10 -3 9 2 -3 15 1
23 9 23 5 0 10 -26 11 -58z m-392 -234 c-2 -18 -58 -78 -73 -78 -14 0 0 48 17
59 19 11 21 11 16 -4 -4 -9 -3 -14 3 -10 6 3 10 12 10 19 0 10 19 36 27 36 1
0 2 -10 0 -22z"/>
<path d="M2760 1679 c0 -5 5 -7 10 -4 6 3 10 8 10 11 0 2 -4 4 -10 4 -5 0 -10
-5 -10 -11z"/>
<path d="M2787 1642 c15 -16 15 -17 0 -20 -9 -2 -17 -8 -17 -13 0 -16 16 -10
41 18 13 14 18 23 12 19 -7 -4 -13 -3 -13 1 0 5 -9 9 -20 10 -19 2 -19 1 -3
-15z"/>
<path d="M2735 1620 c-3 -5 -2 -10 4 -10 5 0 13 5 16 10 3 6 2 10 -4 10 -5 0
-13 -4 -16 -10z"/>
<path d="M2740 1590 c0 -5 5 -10 10 -10 6 0 10 5 10 10 0 6 -4 10 -10 10 -5 0
-10 -4 -10 -10z"/>
<path d="M2716 1563 c-6 -14 -5 -15 5 -6 7 7 10 15 7 18 -3 3 -9 -2 -12 -12z"/>
<path d="M2685 1561 c-3 -5 -2 -12 3 -15 5 -3 9 1 9 9 0 17 -3 19 -12 6z"/>
<path d="M960 1704 c-37 -38 -39 -43 -13 -24 18 13 34 29 37 37 3 8 10 12 14
9 5 -3 9 1 9 9 0 8 -1 15 -2 15 0 0 -21 -21 -45 -46z"/>
<path d="M1834 1689 c-3 -6 -1 -16 5 -22 8 -8 11 -5 11 11 0 24 -5 28 -16 11z"/>
<path d="M1777 1623 c-4 -3 -7 -11 -7 -17 0 -6 5 -5 12 2 6 6 9 14 7 17 -3 3
-9 2 -12 -2z"/>
<path d="M1810 1610 c0 -5 5 -10 10 -10 6 0 10 5 10 10 0 6 -4 10 -10 10 -5 0
-10 -4 -10 -10z"/>
<path d="M856 1572 c-2 -4 -1 -14 4 -22 7 -11 9 -9 7 8 -1 24 -3 26 -11 14z"/>
<path d="M1680 1519 c0 -5 5 -7 10 -4 6 3 10 8 10 11 0 2 -4 4 -10 4 -5 0 -10
-5 -10 -11z"/>
<path d="M1720 1510 c-8 -5 -12 -11 -10 -14 3 -2 14 2 24 10 22 15 10 19 -14
4z"/>
<path d="M1673 1467 c-3 -5 -1 -13 4 -18 5 -5 13 -1 20 10 9 14 8 18 -3 18 -8
0 -17 -4 -21 -10z"/>
<path d="M1630 1459 c0 -5 5 -7 10 -4 6 3 10 8 10 11 0 2 -4 4 -10 4 -5 0 -10
-5 -10 -11z"/>
<path d="M1595 1400 c-3 -5 -1 -10 4 -10 6 0 11 5 11 10 0 6 -2 10 -4 10 -3 0
-8 -4 -11 -10z"/>
<path d="M1139 1387 c7 -7 18 -7 33 0 20 9 20 10 -10 10 -22 0 -29 -4 -23 -10z"/>
<path d="M2289 1253 c-13 -17 -13 -17 6 -3 11 8 22 16 24 17 2 2 0 3 -6 3 -6
0 -17 -8 -24 -17z"/>
<path d="M1463 1243 c4 -3 1 -13 -6 -22 -11 -14 -10 -14 6 -2 20 15 22 31 5
31 -6 0 -8 -3 -5 -7z"/>
<path d="M613 1085 c0 -7 9 -13 19 -12 10 1 18 2 18 4 0 1 -8 7 -18 12 -14 7
-19 6 -19 -4z"/>
<path d="M692 1035 c21 -14 36 -31 34 -38 -1 -6 -1 -9 1 -4 7 11 20 8 38 -9 9
-9 18 -14 21 -11 3 3 -7 13 -23 23 -15 10 -41 28 -56 41 -16 13 -34 23 -40 23
-6 0 5 -11 25 -25z"/>
<path d="M682 1014 c10 -10 20 -16 22 -13 3 3 -5 11 -17 18 -21 13 -21 12 -5
-5z"/>
<path d="M807 929 c7 -7 15 -10 18 -7 3 3 -2 9 -12 12 -14 6 -15 5 -6 -5z"/>
<path d="M854 921 c20 -22 26 -25 26 -13 0 4 -10 13 -22 21 -23 14 -23 14 -4
-8z"/>
<path d="M1030 780 c-8 -5 -10 -10 -5 -10 6 0 17 5 25 10 8 5 11 10 5 10 -5 0
-17 -5 -25 -10z"/>
<path d="M1110 740 c0 -5 5 -10 11 -10 5 0 7 5 4 10 -3 6 -8 10 -11 10 -2 0
-4 -4 -4 -10z"/>
<path d="M1191 687 c2 -1 15 -11 29 -22 l25 -20 -19 23 c-11 12 -24 22 -29 22
-6 0 -8 -1 -6 -3z"/>
<path d="M1180 666 c0 -2 7 -7 16 -10 8 -3 12 -2 9 4 -6 10 -25 14 -25 6z"/>
<path d="M1250 641 c0 -5 7 -12 16 -15 14 -5 15 -4 4 9 -14 17 -20 19 -20 6z"/>
<path d="M1437 509 c7 -7 15 -10 18 -7 3 3 -2 9 -12 12 -14 6 -15 5 -6 -5z"/>
<path d="M1470 486 c0 -2 7 -7 16 -10 8 -3 12 -2 9 4 -6 10 -25 14 -25 6z"/>
<path d="M1501 451 c-9 -6 -10 -11 -2 -15 6 -4 11 -3 11 3 0 6 7 7 17 4 11 -4
14 -3 9 5 -8 14 -16 15 -35 3z"/>
<path d="M1590 406 c0 -2 8 -10 18 -17 15 -13 16 -12 3 4 -13 16 -21 21 -21
13z"/>
<path d="M1711 317 c2 -1 13 -9 24 -17 19 -14 19 -14 6 3 -7 9 -18 17 -24 17
-6 0 -8 -1 -6 -3z"/>
</g>
</svg>
