<?xml version="1.0" standalone="no"?>
<!DOCTYPE svg PUBLIC "-//W3C//DTD SVG 20010904//EN"
 "http://www.w3.org/TR/2001/REC-SVG-20010904/DTD/svg10.dtd">
<svg version="1.0" xmlns="http://www.w3.org/2000/svg"
 width="640.000000pt" height="640.000000pt" viewBox="0 0 640.000000 640.000000"
 preserveAspectRatio="xMidYMid meet">

<g transform="translate(0.000000,640.000000) scale(0.100000,-0.100000)"
fill="#000000" stroke="none">
<path d="M3755 6066 c-23 -35 -16 -90 12 -94 12 -2 39 -19 59 -38 38 -34 64
-44 64 -23 0 6 -13 23 -30 37 -28 25 -40 52 -22 52 4 0 47 -32 96 -70 49 -38
98 -72 109 -76 21 -7 21 -7 -2 -25 -21 -17 -22 -22 -12 -47 7 -16 28 -37 48
-48 20 -10 45 -23 55 -29 23 -12 23 -52 1 -77 -16 -18 -16 -21 2 -50 15 -27
19 -60 23 -211 3 -115 1 -182 -6 -189 -11 -11 -42 2 -77 32 -11 9 -36 22 -55
29 -59 22 -105 45 -113 59 -4 6 -15 12 -22 12 -11 0 -15 -14 -15 -54 0 -54 0
-55 38 -66 20 -7 48 -20 62 -28 14 -9 52 -31 85 -48 l60 -32 3 -206 c3 -233 6
-225 -77 -182 -157 81 -193 89 -285 61 -27 -8 -62 -15 -78 -15 -15 0 -28 -4
-28 -9 0 -10 -101 -51 -125 -51 -13 0 -14 31 -12 202 2 194 3 203 22 206 11 2
27 10 35 17 8 7 34 19 58 26 24 7 48 21 53 31 5 10 18 18 29 18 10 0 23 8 29
17 5 9 26 22 48 28 32 9 38 15 41 41 2 24 -1 33 -17 37 -13 3 -18 1 -15 -8 6
-15 -22 -45 -42 -45 -8 0 -14 -4 -14 -8 0 -5 -19 -15 -42 -22 -24 -8 -46 -18
-49 -22 -6 -9 -346 -127 -366 -128 -7 0 -13 5 -13 11 0 7 -11 21 -23 33 -13
12 -28 30 -34 40 -6 11 -15 16 -22 12 -14 -9 -15 -36 -1 -36 6 0 10 -23 10
-51 l0 -51 33 4 32 3 3 -185 c3 -224 0 -250 -33 -250 -13 0 -30 -9 -37 -19 -8
-10 -25 -21 -38 -23 -17 -2 -26 -10 -28 -25 -4 -29 3 -29 64 1 62 29 117 48
219 75 102 28 272 80 305 94 41 18 134 35 145 27 6 -4 28 -13 50 -20 22 -7 65
-26 95 -41 30 -16 67 -33 83 -38 24 -9 27 -15 27 -56 0 -52 -7 -54 -68 -25
-45 22 -68 25 -77 10 -7 -11 -56 5 -70 25 -14 17 -95 39 -105 28 -5 -4 -10
-24 -12 -43 -2 -27 1 -35 15 -38 12 -2 17 3 17 18 0 16 5 21 23 18 22 -3 22
-5 25 -186 2 -141 0 -183 -10 -186 -7 -2 -47 -10 -88 -18 l-75 -14 -2 -34 c-1
-19 -2 -59 -2 -88 l-1 -54 -32 4 c-18 2 -43 13 -57 26 -13 12 -36 22 -50 22
-15 0 -34 9 -44 20 -9 11 -24 20 -33 20 -8 0 -49 16 -91 35 -42 19 -81 35 -88
35 -14 0 -125 56 -140 71 -5 5 -16 9 -24 9 -8 0 -22 6 -30 14 -9 8 -38 16 -65
17 -40 2 -50 7 -59 27 -9 20 -16 23 -44 19 -18 -3 -33 -2 -33 3 0 12 -203 110
-226 110 -8 0 -21 -13 -27 -30 -6 -16 -17 -30 -24 -30 -12 0 -70 -79 -131
-180 -18 -30 -43 -66 -56 -80 -12 -14 -28 -37 -35 -52 -8 -14 -35 -53 -62 -85
-27 -32 -49 -62 -49 -66 0 -11 -100 -159 -116 -172 -6 -5 -18 -21 -25 -35 -21
-40 -179 -259 -192 -267 -7 -5 -25 -33 -40 -63 -30 -60 -84 -135 -134 -188
-18 -19 -33 -41 -33 -51 0 -23 -69 -123 -80 -116 -6 4 -10 53 -10 111 l0 104
28 12 c15 6 45 11 67 12 33 1 41 5 43 24 3 18 -1 22 -25 22 -29 0 -161 -35
-171 -45 -4 -3 -1 -14 5 -24 6 -9 12 -75 14 -145 4 -126 4 -129 -18 -137 -27
-10 -30 -29 -5 -36 9 -2 24 -19 32 -36 14 -29 21 -33 85 -44 136 -24 177 -32
196 -38 18 -6 19 -2 13 56 -3 35 -8 67 -10 71 -6 10 21 64 55 108 14 19 37 53
51 77 38 65 99 156 156 231 28 38 73 102 101 143 28 41 58 81 67 88 9 7 16 18
16 25 0 6 21 42 47 81 26 38 57 86 70 106 20 30 28 35 53 31 23 -3 30 0 30 12
0 9 -4 16 -10 16 -21 0 -7 29 80 161 95 142 90 138 153 130 10 -1 715 -706
834 -833 52 -56 92 -90 110 -93 15 -4 34 -8 41 -11 14 -4 16 -70 2 -79 -5 -3
-10 -17 -10 -31 0 -13 -5 -24 -10 -24 -15 0 -1 -53 18 -67 9 -7 26 -13 39 -13
18 0 23 6 23 25 0 13 -5 35 -11 49 -7 15 -9 43 -4 71 6 47 7 47 38 41 46 -9
137 -49 137 -61 0 -5 -16 -23 -36 -40 l-35 -30 0 -412 c1 -226 -1 -418 -4
-425 -4 -10 -40 -12 -161 -10 -115 2 -169 -1 -206 -12 -37 -10 -57 -12 -79 -4
-16 5 -36 8 -44 5 -8 -4 -16 2 -20 12 -6 20 -59 36 -78 24 -6 -3 -62 -6 -125
-5 -65 1 -123 -3 -134 -9 -18 -10 -159 -22 -232 -20 -17 0 -37 -6 -47 -14 -14
-14 -18 -14 -29 0 -19 23 -97 20 -110 -5 -13 -23 -45 -27 -54 -5 -8 22 -26 18
-26 -5 0 -14 -7 -20 -24 -20 -13 0 -29 -7 -36 -15 -12 -14 -15 -13 -35 5 -25
23 -55 26 -93 6 -42 -21 -181 -28 -200 -10 -24 25 -102 1 -102 -31 0 -7 -20
-18 -45 -24 -41 -10 -47 -9 -70 11 -14 12 -25 27 -25 34 0 12 -30 24 -62 24
-14 0 -18 -8 -18 -39 0 -46 -22 -70 -45 -51 -8 7 -15 28 -15 46 0 34 0 34 -47
33 -27 0 -68 -4 -93 -7 l-45 -7 3 -57 c4 -54 2 -57 -25 -71 -16 -9 -55 -23
-88 -32 -33 -9 -76 -21 -95 -27 -19 -5 -50 -12 -67 -15 l-33 -5 0 84 c0 94 10
115 55 120 24 2 30 9 36 37 4 21 20 44 43 63 39 32 47 64 19 71 -10 2 -47 5
-82 6 -36 1 -68 4 -73 7 -4 3 -8 39 -8 81 l0 76 91 -6 c83 -6 90 -5 87 11 -2
11 -15 19 -38 22 l-35 5 -3 90 c-5 132 5 195 28 195 11 0 27 12 37 26 27 42 9
56 -76 60 -40 2 -77 7 -82 10 -5 3 -9 38 -9 78 l0 73 53 -5 c28 -2 60 -8 69
-13 9 -5 26 -9 38 -9 34 0 20 33 -20 46 l-35 12 -3 88 c-4 121 2 148 44 186
25 23 34 39 32 58 -3 24 -7 26 -88 35 l-85 10 -3 88 c-3 81 -1 88 15 83 28 -8
105 -27 136 -33 43 -8 32 27 -13 42 l-35 12 -5 84 c-7 109 -3 140 16 132 8 -3
14 -11 14 -19 0 -8 9 -14 20 -14 23 0 23 1 11 52 -11 45 8 78 45 78 20 0 24 5
24 31 0 31 0 32 -42 25 -23 -4 -47 -11 -53 -16 -6 -5 -17 -5 -25 0 -8 6 -26
10 -40 10 -14 0 -36 7 -48 16 -19 13 -22 24 -22 85 0 50 4 69 13 69 19 0 110
-31 122 -41 15 -14 45 -10 45 5 0 20 -12 27 -95 56 l-70 25 0 80 0 80 38 19
c29 14 37 23 35 40 -3 18 -9 21 -40 18 l-38 -3 0 54 c0 58 8 70 53 81 19 4 27
13 27 27 0 21 -15 22 -64 3 -14 -5 -16 13 -16 174 0 192 0 193 53 206 15 4 27
13 27 23 0 13 -8 15 -41 10 l-40 -5 4 114 c4 102 3 114 -12 114 -9 0 -21 -4
-27 -8 -5 -4 -36 -16 -69 -27 -33 -10 -67 -24 -75 -30 -23 -18 -80 -38 -87
-31 -9 8 44 118 81 169 50 70 52 117 4 117 -14 0 -18 -8 -18 -35 0 -24 -5 -35
-15 -35 -8 0 -19 -16 -24 -37 -6 -21 -19 -51 -29 -68 -10 -16 -26 -56 -36 -87
-9 -31 -26 -67 -37 -79 -28 -32 -25 -50 9 -47 l27 3 3 -82 3 -82 -37 -16 c-33
-13 -40 -13 -67 0 -16 8 -41 15 -54 15 -22 0 -23 -3 -23 -75 l0 -75 29 0 30 0
-1 -202 c0 -112 1 -207 2 -213 1 -5 2 -53 1 -105 l-1 -95 -50 -18 c-28 -10
-55 -15 -61 -12 -6 4 -9 40 -8 88 1 54 -2 82 -9 85 -7 2 -40 -5 -74 -17 -35
-11 -74 -21 -88 -23 -24 -3 -24 -3 -20 -98 4 -108 4 -109 -6 -206 -4 -46 -3
-74 4 -78 7 -4 5 -16 -5 -36 -16 -33 -10 -70 12 -70 8 0 15 12 17 28 3 31 6
31 128 14 102 -15 113 -20 107 -49 -5 -29 16 -41 38 -23 12 10 15 10 15 -3 0
-9 12 -18 30 -22 28 -6 30 -10 30 -53 l0 -47 -68 -18 c-110 -29 -107 -30 -110
33 -2 30 -8 58 -14 61 -9 6 -43 -2 -162 -38 -16 -5 -18 -14 -14 -90 2 -46 10
-89 16 -95 7 -7 12 -42 12 -83 0 -42 5 -76 12 -83 7 -7 40 -12 77 -12 37 0 83
-5 104 -11 36 -10 37 -11 31 -45 -6 -33 -5 -34 24 -34 28 0 31 -3 34 -37 3
-35 5 -38 31 -35 26 3 28 1 25 -25 -3 -26 -7 -29 -68 -40 -97 -18 -100 -17
-100 16 0 17 -5 33 -10 36 -6 4 -8 10 -6 14 3 4 1 13 -3 20 -7 11 -21 11 -80
1 -39 -7 -71 -17 -71 -22 0 -4 -6 -8 -14 -8 -10 0 -14 -32 -18 -142 -3 -79 -2
-150 3 -159 12 -24 33 -30 140 -38 108 -9 119 -13 119 -46 0 -23 24 -40 41
-29 5 3 9 -24 9 -60 0 -51 3 -66 14 -66 8 0 18 5 21 10 15 24 26 7 23 -37 -3
-53 -3 -53 -126 -68 l-55 -7 5 54 c3 29 3 68 1 87 l-6 34 -57 -6 c-90 -10 -87
-5 -82 -108 l4 -90 -31 -12 c-31 -11 -43 -37 -17 -37 18 0 26 -22 26 -76 0
-37 -3 -44 -20 -44 -17 0 -20 -7 -20 -40 0 -42 17 -53 40 -25 9 11 17 12 32 4
11 -6 36 -10 56 -8 20 1 58 1 85 0 45 -1 47 -2 47 -31 0 -27 3 -30 30 -30 l30
0 0 -115 c0 -114 0 -115 -24 -115 -13 0 -38 -3 -55 -6 l-31 -7 0 71 c0 38 -3
84 -6 102 l-7 32 -73 -4 c-40 -2 -76 -7 -80 -11 -4 -4 -2 -18 4 -32 7 -14 12
-55 12 -90 0 -62 -1 -64 -35 -85 -19 -12 -35 -24 -35 -26 0 -3 12 -9 26 -14
25 -10 26 -13 21 -73 -2 -34 -7 -72 -12 -84 -8 -25 3 -28 147 -38 84 -7 87 -7
90 -33 2 -18 10 -28 28 -32 23 -5 26 -12 31 -74 3 -37 3 -154 0 -259 l-6 -192
-27 3 c-23 3 -28 -1 -28 -17 0 -17 6 -21 30 -21 25 0 30 -4 30 -25 0 -22 -4
-25 -40 -25 -27 0 -40 -4 -40 -13 0 -11 36 -15 162 -21 88 -3 163 -4 166 -1 9
8 21 200 21 333 l1 122 30 0 c20 0 30 5 30 15 0 12 -16 15 -72 17 -40 1 -90 0
-111 -1 -36 -2 -67 11 -67 30 0 5 18 9 39 9 78 0 97 24 27 34 -40 6 -44 9 -49
41 -3 19 -3 51 0 70 l6 35 58 0 59 0 0 -37 0 -36 98 6 c53 4 118 7 143 7 44 0
47 2 53 31 5 27 8 30 21 19 8 -7 15 -23 15 -36 0 -17 6 -24 20 -24 19 0 20 -7
20 -114 0 -87 -3 -116 -15 -126 -10 -8 -15 -36 -17 -88 -3 -69 -5 -77 -24 -80
-20 -3 -20 1 -22 158 0 88 -4 165 -7 170 -3 6 -31 10 -60 10 l-55 0 -2 -167
-3 -168 -32 -3 c-21 -2 -33 -9 -33 -18 0 -8 3 -14 8 -14 4 -1 53 -2 109 -3 56
-1 106 -6 112 -12 5 -5 12 -80 15 -165 3 -85 5 -158 6 -161 0 -3 80 -9 177
-13 99 -4 183 -12 190 -18 7 -6 13 -21 13 -33 0 -21 5 -24 58 -27 60 -4 88 6
62 22 -8 5 -25 10 -37 10 -14 0 -23 6 -23 15 0 18 -7 18 160 0 158 -17 250
-19 250 -5 0 13 -27 18 -140 25 -163 9 -210 16 -210 31 0 10 18 12 85 7 61 -4
85 -3 85 6 0 6 -6 11 -12 11 -7 0 -19 4 -27 9 -12 8 -12 12 -2 25 16 19 6 36
-20 36 -12 0 -19 5 -16 13 3 9 29 11 96 9 55 -2 91 0 91 6 0 14 -25 22 -66 22
-23 0 -34 5 -34 14 0 19 54 30 79 17 11 -6 67 -11 124 -11 l105 0 -5 -77 c-2
-43 -6 -79 -8 -81 -2 -2 -62 2 -134 9 -123 12 -163 9 -131 -11 7 -5 57 -11
109 -15 115 -8 163 -17 168 -30 2 -6 -19 -9 -52 -7 -32 2 -55 0 -55 -6 0 -14
26 -22 71 -22 28 0 39 -4 39 -15 0 -16 -9 -18 -81 -15 -33 1 -48 -3 -52 -14
-8 -20 46 -31 105 -22 24 4 86 11 138 15 104 10 166 23 218 48 31 15 51 15
181 5 80 -6 193 -14 251 -17 58 -4 131 -11 163 -16 41 -7 68 -7 92 1 18 6 75
15 126 20 52 4 145 14 208 20 103 11 116 11 126 -4 16 -21 28 -20 42 2 12 20
37 24 353 58 74 7 169 18 210 24 41 5 122 14 180 19 58 5 114 12 126 16 13 4
27 1 37 -9 22 -22 34 -20 43 7 3 12 12 29 19 37 7 8 16 34 20 57 6 40 9 42 43
45 26 2 38 8 40 21 3 14 -4 17 -42 17 -42 0 -46 2 -46 25 0 27 -18 33 -38 13
-9 -9 -12 25 -12 155 0 92 4 167 8 167 4 0 13 -5 20 -12 6 -6 13 -10 16 -7 7
7 9 138 8 409 l-2 265 -45 11 c-39 9 -45 8 -46 -5 0 -9 1 -104 2 -211 2 -107
3 -224 2 -260 -1 -36 -1 -137 0 -225 2 -221 1 -255 -9 -295 -10 -35 -10 -35
-79 -42 -39 -4 -110 -12 -158 -19 -85 -10 -89 -10 -103 10 -9 12 -24 21 -34
21 -10 0 -22 5 -25 10 -11 17 -45 -9 -45 -34 0 -23 -3 -24 -106 -31 -58 -4
-158 -8 -223 -9 l-116 -1 0 135 0 135 135 5 135 5 2 30 c4 49 -33 84 -96 92
-40 4 -55 3 -62 -8 -4 -8 -20 -15 -34 -16 -14 -1 -32 -9 -41 -18 -37 -37 -39
-21 -42 429 l-2 438 40 -7 c36 -6 40 -5 40 14 0 16 -6 21 -24 21 -59 0 -56
-25 -56 427 0 266 4 421 10 434 12 21 80 59 107 59 15 0 296 -96 373 -128 14
-6 86 -29 160 -53 74 -23 161 -55 194 -71 l59 -30 -6 -43 c-4 -29 -2 -53 8
-72 8 -15 15 -33 15 -39 0 -7 10 -14 23 -18 33 -9 37 -8 37 13 0 23 31 63 71
92 28 20 31 20 48 5 17 -16 161 -66 189 -66 9 0 12 35 11 143 -1 78 -4 166 -7
196 l-7 54 -70 24 c-96 32 -107 29 -112 -29 -5 -52 7 -63 25 -23 22 48 32 27
32 -70 0 -70 -4 -97 -13 -101 -18 -6 -92 36 -144 83 -23 21 -57 49 -75 63 -50
38 -252 231 -355 338 -67 69 -90 99 -82 108 5 6 11 49 12 95 2 46 6 89 10 96
4 6 22 14 40 18 58 12 67 16 67 32 0 13 -9 14 -50 9 -97 -13 -96 -12 -105
-118 -4 -51 -11 -99 -17 -106 -8 -9 -35 11 -112 85 -104 99 -129 130 -118 148
3 5 7 187 9 405 4 511 3 506 26 502 24 -4 22 33 -3 51 -20 14 -20 24 -20 442
0 335 2 430 12 437 7 5 41 7 75 4 l62 -5 7 59 7 60 76 0 c42 0 154 -3 249 -7
l172 -6 0 -49 c0 -51 3 -54 44 -38 l26 10 0 -125 c0 -112 8 -151 27 -132 3 3
6 56 8 119 4 113 12 135 37 100 7 -10 63 -59 123 -107 61 -49 115 -94 120
-101 35 -40 187 -164 195 -159 13 8 -26 64 -49 72 -9 3 -36 25 -61 49 -70 67
-111 104 -116 104 -8 0 -168 142 -177 156 -19 31 16 20 71 -24 71 -56 286
-246 339 -299 22 -22 56 -52 78 -68 60 -46 145 -130 145 -143 0 -15 -2 -15
-36 3 -33 17 -38 14 -29 -14 6 -20 56 -51 81 -51 7 0 16 9 19 20 14 45 -5 76
-102 161 -53 46 -174 154 -268 239 -207 187 -328 289 -369 313 -27 15 -59 17
-242 17 l-211 0 -7 31 c-3 17 -6 49 -6 70 0 35 -5 41 -85 103 -47 36 -91 66
-98 66 -7 0 -64 -18 -126 -41 -89 -32 -118 -39 -135 -31 -11 5 -56 39 -98 73
-159 131 -167 135 -193 95z m45 -52 c0 -9 -5 -14 -12 -12 -18 6 -21 28 -4 28
9 0 16 -7 16 -16z m615 -227 c64 -57 59 -77 -20 -77 -50 0 -55 2 -55 23 0 36
12 97 19 97 4 0 29 -19 56 -43z m-127 -24 c-3 -57 -4 -58 -32 -58 -24 0 -31 5
-37 29 -5 17 -15 34 -24 38 -26 15 -17 36 18 41 83 10 78 13 75 -50z m10 -116
c3 -14 -5 -17 -46 -17 -52 0 -63 5 -56 23 2 7 25 12 52 12 36 -1 48 -5 50 -18z
m622 -17 c0 -13 -7 -20 -20 -20 -13 0 -20 7 -20 20 0 13 7 20 20 20 13 0 20
-7 20 -20z m-3642 -577 l-3 -96 -35 -12 c-83 -29 -75 -36 -75 73 l1 97 34 17
c19 10 45 18 58 18 22 0 23 -2 20 -97z m-148 -57 c0 -102 -1 -104 -56 -116
l-34 -8 0 97 c0 97 0 97 28 108 60 24 62 22 62 -81z m2342 -63 c3 -76 4 -167
4 -203 l-1 -65 -32 -3 -33 -3 0 165 c0 91 -4 166 -8 166 -25 0 -32 -30 -32
-144 0 -67 4 -138 9 -158 9 -40 3 -51 -36 -61 -13 -3 -26 0 -30 6 -3 6 -5 90
-4 186 2 191 10 221 55 221 13 0 39 7 57 15 19 8 37 14 40 15 3 0 8 -62 11
-137z m-2195 -194 l-1 -180 -31 -14 c-18 -7 -41 -16 -53 -19 l-22 -7 0 184 0
184 53 15 c28 9 53 16 54 17 1 0 1 -80 0 -180z m-147 -68 l0 -169 -41 -7 c-22
-4 -43 -4 -47 0 -11 10 -15 140 -7 231 7 84 8 86 38 99 58 26 57 29 57 -154z
m2896 -197 l94 -45 0 -155 c0 -146 -1 -154 -19 -154 -11 0 -22 4 -26 10 -3 5
-41 26 -85 46 -53 25 -80 44 -84 58 -8 30 -7 271 1 279 11 12 22 8 119 -39z
m-3022 20 c9 -22 8 -24 -9 -24 -8 0 -15 9 -15 20 0 24 15 27 24 4z m276 -34
c0 -62 -14 -72 -135 -102 -86 -22 -88 -22 -102 -2 -7 10 -13 35 -11 54 3 32 6
35 43 41 22 4 72 18 110 32 98 34 95 35 95 -23z m-2 -214 c-3 -49 -4 -51 -33
-51 -29 0 -30 1 -33 53 -3 47 -1 53 20 61 36 14 49 -5 46 -63z m-98 -11 c0
-48 -23 -72 -41 -44 -13 21 -11 77 4 82 31 13 37 6 37 -38z m-80 -31 c0 -37
-3 -44 -20 -44 -16 0 -20 7 -20 38 0 38 16 66 32 56 4 -3 8 -25 8 -50z m-384
-117 c-1 -56 -3 -62 -23 -65 -22 -3 -23 0 -23 60 0 66 14 96 36 78 7 -7 11
-35 10 -73z m548 -8 c7 -80 4 -89 -30 -89 -23 0 -24 2 -24 80 0 77 1 80 24 80
21 0 24 -5 30 -71z m-90 45 c3 -9 6 -45 6 -80 0 -56 -2 -64 -19 -64 -17 0 -20
9 -23 68 -4 62 4 92 22 92 4 0 11 -7 14 -16z m-74 -79 c0 -36 0 -68 1 -72 0
-5 -30 -17 -68 -28 -37 -11 -72 -23 -78 -26 -22 -14 -176 -59 -202 -59 -15 -1
-39 -7 -53 -15 -50 -28 -60 -21 -60 44 0 51 3 61 25 75 13 9 35 16 47 16 13 1
34 7 48 15 14 8 34 14 45 15 11 0 31 6 45 13 14 7 51 21 83 32 31 10 57 23 57
27 0 4 10 8 23 8 12 0 29 5 37 10 8 5 23 10 33 10 14 0 17 -10 17 -65z m2820
-239 c0 -168 -4 -307 -8 -310 -11 -6 -114 100 -131 135 -7 15 -25 39 -39 55
-20 21 -28 43 -34 93 -12 115 -10 148 10 153 15 4 19 17 20 78 1 41 4 75 6 78
6 6 97 20 139 21 l37 1 0 -304z m77 272 c15 -7 47 -25 71 -41 35 -23 42 -33
42 -61 0 -18 -3 -36 -7 -40 -4 -3 -6 -116 -4 -250 l3 -244 -24 -4 c-13 -2 -45
4 -72 13 l-49 17 4 78 c2 44 2 184 1 312 -1 127 0 232 3 232 2 0 17 -5 32 -12z
m-2627 -414 c0 -50 -2 -54 -24 -54 -26 0 -36 17 -36 58 0 31 9 47 30 54 25 9
30 -1 30 -58z m-95 -4 c0 -31 -3 -35 -27 -38 -16 -2 -28 1 -28 7 0 5 -3 16 -6
24 -7 18 23 49 45 45 11 -2 16 -14 16 -38z m-99 -16 c8 -29 -7 -49 -30 -41
-10 4 -16 18 -16 37 0 40 36 43 46 4z m-76 -24 c0 -33 -3 -40 -20 -40 -17 0
-20 7 -20 40 0 33 3 40 20 40 17 0 20 -7 20 -40z m163 -62 c4 -12 4 -48 0 -80
-5 -53 -8 -58 -29 -58 -23 0 -24 3 -24 73 0 41 3 77 7 80 14 15 41 6 46 -15z
m-533 -21 c0 -37 -15 -57 -42 -57 -14 0 -18 8 -18 38 0 45 5 52 37 52 19 0 23
-5 23 -33z m450 -51 c0 -57 -3 -75 -15 -80 -21 -8 -35 32 -35 100 0 51 1 54
25 54 24 0 25 -2 25 -74z m-80 -17 l0 -70 -37 -16 c-21 -9 -51 -17 -68 -17
-16 -1 -37 -5 -45 -8 -29 -12 -145 -40 -170 -42 -24 -1 -25 1 -25 69 0 67 1
70 25 73 14 1 43 9 65 16 22 7 60 19 85 26 25 7 54 16 65 21 25 10 53 16 83
18 21 1 22 -3 22 -70z m-380 -99 c0 -65 -1 -70 -24 -76 -41 -10 -49 2 -41 65
8 62 18 81 46 81 17 0 19 -8 19 -70z m650 -266 l0 -75 -27 3 c-27 3 -28 5 -31
67 -3 66 4 81 41 81 15 0 17 -10 17 -76z m-96 40 c9 -23 7 -77 -3 -92 -4 -8
-19 -12 -32 -10 -22 3 -24 8 -23 51 0 31 6 52 15 58 21 13 36 11 43 -7z m-94
-55 c0 -42 -3 -49 -20 -49 -21 0 -23 5 -20 60 2 34 16 54 32 44 4 -3 8 -27 8
-55z m-82 -12 c3 -52 1 -57 -18 -57 -18 0 -20 6 -20 53 0 30 3 57 7 61 17 16
28 -5 31 -57z m-380 -83 c-2 -21 -8 -29 -23 -29 -27 0 -33 44 -9 62 23 17 36
3 32 -33z m4470 -122 c3 -160 0 -170 -41 -139 -14 10 -15 18 -7 47 5 19 10 84
10 143 0 98 2 108 18 105 15 -3 17 -20 20 -156z m-3923 58 l0 -75 -45 -1 c-25
-1 -78 -9 -119 -18 -40 -10 -92 -19 -115 -21 -43 -4 -286 -32 -321 -37 -18 -3
-20 4 -23 63 -2 45 1 69 10 76 7 6 58 16 113 22 55 6 127 15 160 20 174 29
238 41 249 45 6 3 29 4 51 3 l40 -2 0 -75z m3683 -156 c26 -7 28 -21 5 -46
-26 -29 -53 -23 -53 10 0 41 7 47 48 36z m-3578 -214 l0 -90 -30 0 -30 0 0 80
c0 65 3 81 18 89 38 22 42 14 42 -79z m-92 10 c4 -77 -3 -100 -33 -100 -27 0
-30 10 -26 90 3 50 16 72 40 68 12 -2 17 -17 19 -58z m-103 -30 c0 -70 -1 -75
-22 -78 -22 -3 -23 0 -23 71 0 77 4 90 30 85 12 -3 15 -18 15 -78z m-75 -10
c0 -73 -2 -80 -20 -80 -18 0 -20 7 -20 64 0 73 6 96 26 96 11 0 14 -18 14 -80z
m-75 -24 c8 -51 2 -66 -26 -66 -16 0 -19 7 -19 48 0 27 3 52 7 55 17 18 32 3
38 -37z m-307 -38 c-3 -67 -5 -73 -25 -76 -22 -3 -23 0 -23 66 0 74 3 82 32
82 17 0 19 -7 16 -72z m552 -112 c0 -41 -4 -77 -10 -81 -5 -3 -42 -7 -82 -8
-40 -1 -76 -6 -79 -11 -4 -5 -14 -6 -23 -3 -12 5 -16 22 -17 67 -1 33 -2 65
-3 72 -1 17 77 36 152 37 l62 1 0 -74z m-245 -10 c10 -77 5 -91 -30 -89 -16 1
-35 -3 -42 -9 -7 -6 -40 -11 -72 -12 -33 0 -63 -4 -67 -8 -4 -5 -20 -8 -36 -8
l-29 0 3 78 3 77 115 11 c63 6 123 12 132 13 13 1 18 -11 23 -53z m-315 -61
c0 -72 -1 -75 -24 -75 -26 0 -36 21 -36 75 0 35 24 75 46 75 11 0 14 -16 14
-75z m3070 -154 c0 -43 -10 -51 -64 -52 -28 0 -69 -4 -91 -8 -44 -8 -95 9 -95
33 0 20 25 28 110 36 134 13 140 12 140 -9z m138 -23 c3 -27 2 -28 -47 -28
-50 0 -51 1 -51 31 0 30 1 30 48 27 43 -3 47 -5 50 -30z m-2749 -52 c8 -9 11
-46 9 -103 -3 -80 -5 -88 -23 -88 -18 0 -20 8 -23 89 -2 49 -1 95 2 103 7 17
21 17 35 -1z m109 -88 l3 -98 -36 0 -35 0 0 84 c0 104 5 118 39 114 26 -3 26
-4 29 -100z m478 50 c1 -44 -1 -48 -22 -48 -12 0 -26 5 -29 10 -3 6 -15 10
-26 10 -15 0 -19 7 -19 33 0 44 6 49 55 45 l40 -3 1 -47z m-728 -61 l3 -98
-28 3 c-31 3 -32 6 -19 131 6 56 11 68 24 65 14 -3 17 -19 20 -101z m72 2 c0
-90 -2 -100 -17 -97 -15 3 -18 17 -21 87 -3 94 0 111 23 111 12 0 15 -17 15
-101z m2787 82 l33 -1 -1 -572 c0 -382 -4 -577 -11 -585 -14 -18 -77 -17 -84
1 -3 8 -6 93 -7 188 l-2 173 -47 3 c-31 2 -52 9 -60 21 -13 17 -75 53 -110 65
-13 4 -18 19 -20 58 -2 39 -7 53 -18 53 -12 0 -15 -14 -16 -60 -2 -126 -1
-122 -36 -128 -18 -2 -39 0 -46 6 -17 13 -15 357 2 361 6 2 31 10 56 18 l45
15 1 80 c0 43 4 85 8 91 4 7 25 12 46 12 32 0 39 -4 42 -22 4 -30 34 -35 43
-9 7 24 37 27 55 6 18 -22 32 -19 73 19 44 40 49 79 15 97 -13 7 -34 23 -47
35 -17 17 -35 24 -62 24 -35 0 -39 3 -39 24 0 31 10 34 90 31 36 -2 80 -4 97
-4z m-3177 -121 c0 -73 -2 -80 -20 -80 -18 0 -20 7 -20 73 0 76 4 87 27 87 10
0 13 -20 13 -80z m2669 34 c32 -7 42 -28 16 -38 -8 -3 -144 -10 -302 -16 -159
-6 -364 -15 -458 -21 -93 -6 -239 -13 -322 -16 -151 -5 -153 -5 -153 16 0 18
6 21 38 21 20 0 116 5 212 11 96 6 227 12 290 14 148 4 569 24 595 29 36 6 52
6 84 0z m-2109 -209 l0 -85 -52 -2 c-29 -1 -64 -1 -78 0 -14 1 -32 -1 -40 -4
-8 -3 -114 -6 -235 -7 l-220 -2 -3 66 c-2 46 1 69 11 77 7 6 58 14 113 17 172
11 377 21 442 23 l62 2 0 -85z m142 55 c35 0 42 -14 39 -70 -4 -77 -3 -76 -78
-70 l-68 5 -3 69 c-4 94 -2 97 45 80 21 -7 50 -13 65 -14z m1504 8 c-1 -14 6
-24 17 -26 13 -3 17 3 17 22 0 32 26 35 63 6 14 -11 30 -20 35 -20 13 0 24
-192 20 -355 l-3 -130 -27 -3 c-19 -2 -28 -10 -30 -25 -3 -20 -8 -22 -80 -22
-42 0 -79 3 -83 7 -4 4 -10 45 -12 92 -5 78 -4 86 12 86 17 0 18 10 12 138 -3
75 -9 146 -12 158 -5 17 0 24 25 34 25 11 31 18 27 37 -2 14 1 23 8 23 6 0 11
-10 11 -22z m-396 -83 c0 -47 4 -85 9 -85 5 0 17 -8 26 -17 13 -13 21 -14 35
-6 10 7 42 9 79 6 l61 -6 0 -195 0 -195 -64 -61 c-83 -80 -116 -106 -133 -106
-7 0 -13 -8 -13 -18 0 -10 -6 -26 -13 -36 -11 -15 -29 -17 -127 -17 -80 1
-116 4 -122 13 -11 19 -10 116 2 139 9 17 22 19 104 19 63 0 97 4 104 13 12
14 15 40 13 115 -1 49 -2 52 -20 42 -12 -6 -21 -23 -23 -43 -2 -27 -8 -33 -30
-35 -16 -2 -28 1 -28 7 0 6 -7 11 -15 11 -8 0 -15 -4 -15 -10 0 -5 -11 -10
-25 -10 l-25 0 0 158 c0 111 4 163 13 175 7 10 35 19 77 24 93 11 76 28 -28
28 l-87 0 -3 40 c-3 53 9 69 55 70 137 4 133 3 140 35 4 23 11 30 29 30 23 0
24 -2 24 -85z m864 23 c12 -64 0 -78 -70 -78 l-54 0 0 55 c0 63 13 76 75 72
39 -2 40 -3 49 -49z m120 0 c11 -55 4 -78 -23 -78 -36 0 -54 67 -30 111 18 34
43 19 53 -33z m-1649 30 c10 -9 7 -490 -3 -500 -5 -5 -49 -8 -98 -6 l-89 3 -3
95 c-2 52 0 106 3 119 6 22 10 23 52 18 54 -6 93 6 93 28 0 13 -17 15 -115 14
-106 -1 -115 -2 -115 -20 0 -12 7 -19 19 -19 18 0 20 -9 23 -120 l3 -120 -46
0 -47 0 -6 63 c-8 67 -6 436 2 451 5 9 317 4 327 -6z m161 -5 c13 -17 15 -17
28 0 17 21 25 21 53 -2 37 -31 43 -64 43 -256 l0 -183 -30 -7 c-25 -5 -30 -12
-30 -35 0 -27 -3 -28 -50 -32 -96 -6 -90 -17 -96 184 -4 112 -2 190 5 210 7
22 7 47 1 73 -8 33 -6 42 7 53 24 17 53 15 69 -5z m1202 -40 c3 -44 0 -53 -18
-63 -11 -6 -38 -10 -58 -8 -37 3 -37 3 -40 52 -5 72 -1 78 60 74 l53 -3 3 -52z
m-490 -52 l3 -34 -42 6 c-43 6 -59 19 -59 50 0 15 7 18 48 15 45 -3 47 -4 50
-37z m663 -231 c4 -96 5 -176 4 -178 -2 -2 -29 -4 -60 -5 -39 -1 -59 3 -65 13
-13 21 -12 307 1 331 8 17 19 20 62 17 l52 -3 6 -175z m-177 154 c3 -9 6 -80
6 -159 0 -79 -3 -150 -6 -159 -9 -23 -99 -23 -108 0 -3 9 -6 83 -6 164 0 167
1 169 71 170 25 0 39 -5 43 -16z m-959 -179 c0 -144 -2 -160 -17 -163 -17 -3
-18 10 -18 163 0 153 1 166 18 163 15 -3 17 -19 17 -163z m-901 -21 c14 -5 16
-28 16 -146 l0 -139 -27 3 -28 3 0 125 c0 112 6 160 19 160 2 0 11 -3 20 -6z
m-272 -211 c2 -76 2 -171 0 -210 -3 -69 -5 -73 -27 -73 -12 0 -26 7 -29 16 -8
20 -8 352 0 382 4 15 14 22 30 22 23 0 23 -1 26 -137z m2538 76 c0 -14 -5 -19
-17 -17 -26 5 -29 38 -4 38 15 0 21 -6 21 -21z m-1680 -77 l145 -8 -91 -89
c-50 -50 -98 -96 -107 -103 -9 -7 -20 -30 -23 -51 l-6 -39 -107 -6 c-115 -8
-135 -4 -167 30 -12 12 -39 25 -60 28 l-39 7 -3 109 c-2 80 1 111 10 117 14 9
211 20 268 15 19 -2 100 -6 180 -10z m1388 -2 l82 0 0 -45 c0 -33 4 -45 15
-45 11 0 15 11 15 36 0 54 32 63 200 55 l135 -6 3 -132 c3 -129 2 -132 -20
-139 -12 -4 -35 -20 -50 -36 -22 -24 -31 -27 -47 -19 -11 6 -62 11 -115 11
-52 0 -97 4 -101 9 -9 15 -78 0 -98 -20 -20 -21 -77 -25 -94 -8 -8 8 -90 14
-232 18 -180 6 -224 10 -237 22 -19 20 -27 257 -9 282 15 21 33 22 265 20 113
-1 242 -2 288 -3z m-1178 -135 c0 -78 -2 -88 -25 -110 -20 -21 -34 -25 -79
-25 -65 0 -86 7 -86 28 0 16 168 192 183 192 4 0 7 -38 7 -85z m580 -4 c0 -39
-4 -72 -10 -76 -5 -3 -21 -3 -35 1 -22 5 -25 11 -25 49 0 45 29 95 56 95 11 0
14 -16 14 -69z m-80 -164 c0 -22 -60 -81 -72 -69 -14 14 0 70 20 75 33 9 52 7
52 -6z m100 -118 c0 -67 -1 -70 -27 -80 -42 -17 -173 -24 -173 -10 0 31 74
121 100 121 9 0 31 11 50 25 18 13 37 22 41 19 5 -3 9 -37 9 -75z m-245 -2 c9
-44 3 -90 -11 -94 -14 -5 -28 78 -19 107 10 30 23 24 30 -13z"/>
<path d="M3800 4020 c0 -11 7 -20 15 -20 8 0 15 9 15 20 0 11 -7 20 -15 20 -8
0 -15 -9 -15 -20z"/>
<path d="M1460 5920 c0 -13 7 -20 20 -20 13 0 20 7 20 20 0 13 -7 20 -20 20
-13 0 -20 -7 -20 -20z"/>
<path d="M3640 5847 c0 -44 12 -87 25 -87 32 0 24 102 -8 108 -12 3 -17 -3
-17 -21z"/>
<path d="M1110 5567 c0 -8 8 -21 18 -30 53 -49 75 -73 162 -176 52 -63 109
-130 126 -150 l30 -36 -1 -155 c-1 -85 1 -163 3 -173 2 -9 19 -24 38 -33 32
-15 36 -15 86 9 101 47 248 99 263 93 8 -3 15 -16 15 -30 0 -28 15 -42 26 -24
4 6 8 28 8 47 1 26 6 37 19 39 12 3 17 -3 17 -21 0 -36 10 -57 26 -57 9 0 14
12 14 34 0 19 4 37 8 40 8 5 87 -30 324 -142 l107 -50 -12 -37 c-9 -30 -8 -38
4 -46 26 -16 38 -9 41 24 3 27 7 32 27 29 14 -1 38 -13 55 -25 17 -13 51 -29
76 -36 25 -7 65 -23 90 -36 103 -53 261 -125 275 -125 35 0 10 29 -47 55 -35
16 -109 50 -165 77 -57 26 -107 48 -112 48 -15 0 -21 14 -12 29 6 10 47 -5
167 -60 88 -39 178 -78 202 -85 39 -12 42 -12 42 6 0 11 -11 25 -24 32 -14 7
-53 37 -88 66 -35 29 -86 69 -114 90 -69 50 -303 272 -310 294 -8 27 -44 5
-37 -22 7 -27 -14 -50 -47 -50 -20 0 -45 17 -94 63 -64 60 -66 64 -66 110 0
61 20 188 32 204 16 21 83 26 117 9 67 -35 80 -12 26 47 -34 37 -60 45 -93 28
-9 -5 -33 -16 -53 -24 -34 -14 -37 -19 -43 -71 -7 -49 -10 -56 -30 -56 -25 0
-60 33 -71 68 -3 12 -17 30 -30 38 -20 13 -30 14 -60 4 -19 -6 -42 -21 -50
-33 -28 -40 -194 -98 -258 -90 -46 6 -344 145 -361 169 -6 8 -22 16 -35 19
-25 5 -51 22 -64 43 -11 17 -126 72 -149 72 -10 0 -18 -6 -18 -13z m820 -546
c0 -13 -15 -24 -52 -38 -29 -11 -119 -45 -200 -77 -156 -59 -192 -67 -186 -40
2 11 65 39 188 85 102 39 194 74 205 79 32 14 45 11 45 -9z m255 -89 c190 -90
240 -120 223 -137 -3 -3 -105 41 -227 97 -165 77 -221 107 -221 120 0 10 4 18
8 18 4 0 102 -44 217 -98z m351 -164 c32 -14 44 -24 41 -36 -4 -21 -7 -20 -79
12 -43 19 -56 30 -52 41 7 17 19 15 90 -17z"/>
<path d="M4530 5529 c0 -25 33 -22 38 4 2 12 -3 17 -17 17 -15 0 -21 -6 -21
-21z"/>
<path d="M567 5514 c-16 -16 -6 -34 19 -34 19 0 25 5 22 17 -3 19 -29 29 -41
17z"/>
<path d="M5020 5384 c-19 -6 -15 -74 4 -74 20 0 36 -46 36 -101 0 -44 -3 -51
-25 -59 -14 -5 -25 -12 -25 -15 0 -3 11 -10 25 -15 24 -9 25 -13 25 -90 0 -44
-4 -80 -8 -80 -5 0 -32 7 -61 16 -63 18 -126 16 -126 -6 0 -10 12 -16 33 -18
31 -3 32 -5 32 -47 0 -41 -1 -43 -35 -49 -49 -10 -47 -36 3 -36 60 0 96 -15
164 -67 35 -28 74 -56 88 -63 33 -17 102 -67 154 -110 22 -19 68 -53 101 -75
33 -22 83 -58 112 -80 104 -81 127 -95 149 -95 19 0 24 7 30 46 8 58 -11 124
-37 124 -10 0 -24 10 -30 23 -7 12 -18 26 -25 30 -15 9 -19 37 -5 37 16 0 20
65 9 185 -7 82 -15 123 -24 128 -8 4 -48 38 -89 73 -41 36 -80 64 -86 62 -13
-4 -20 -65 -23 -203 -2 -55 -3 -106 -4 -112 -3 -22 -27 -14 -66 20 l-37 32 -2
193 -2 193 -41 37 c-22 20 -68 58 -102 84 -49 39 -61 54 -64 80 -3 33 -16 41
-48 32z m108 -222 c3 -47 1 -52 -17 -52 -19 0 -21 6 -21 56 0 47 3 55 18 52
13 -2 18 -15 20 -56z m70 -55 c3 -52 1 -58 -15 -55 -14 3 -19 15 -21 61 -3 52
-1 58 15 55 14 -3 19 -15 21 -61z m-70 -121 c4 -84 -2 -104 -23 -86 -11 9 -15
33 -15 87 0 66 2 74 18 71 14 -3 18 -16 20 -72z m70 -64 c2 -45 -1 -82 -6 -82
-22 0 -32 29 -32 98 0 65 2 73 18 70 14 -3 17 -16 20 -86z m296 -18 c10 -25
-5 -94 -20 -94 -10 0 -14 15 -14 55 0 40 4 55 14 55 8 0 17 -7 20 -16z m3
-213 c3 -64 2 -73 -12 -67 -9 3 -19 6 -21 6 -2 0 -4 32 -4 71 0 60 2 70 17 67
13 -2 17 -18 20 -77z"/>
<path d="M4850 5240 c0 -13 7 -20 20 -20 13 0 20 7 20 20 0 13 -7 20 -20 20
-13 0 -20 -7 -20 -20z"/>
<path d="M3070 5131 c0 -32 -3 -73 -6 -90 -6 -27 -4 -31 15 -31 20 0 21 5 21
84 0 65 -3 85 -15 90 -12 4 -15 -5 -15 -53z"/>
<path d="M4322 4990 c-15 -24 -16 -47 -2 -55 18 -11 41 16 38 43 -4 32 -20 38
-36 12z"/>
<path d="M760 4845 c0 -16 6 -25 15 -25 9 0 15 9 15 25 0 16 -6 25 -15 25 -9
0 -15 -9 -15 -25z"/>
<path d="M1926 4821 c-3 -5 -3 -30 0 -55 5 -36 11 -46 25 -46 21 0 23 12 13
73 -6 35 -25 49 -38 28z"/>
<path d="M718 4680 c-31 -39 -110 -100 -127 -100 -5 0 -14 -6 -20 -14 -7 -8
-24 -17 -38 -21 -15 -3 -44 -18 -65 -33 -35 -25 -38 -31 -36 -67 3 -36 7 -41
35 -50 25 -7 33 -15 33 -32 0 -14 6 -23 15 -23 9 0 15 9 15 24 0 17 8 27 28
35 15 7 43 21 62 31 19 11 65 29 103 41 41 13 67 26 67 35 0 19 -16 18 -100
-11 -85 -29 -90 -30 -90 -11 0 13 115 61 165 68 18 3 20 11 20 77 0 58 -3 75
-17 82 -13 7 -24 0 -50 -31z m-158 -218 c0 -13 -12 -22 -37 -30 -59 -18 -76 9
-20 33 43 19 57 18 57 -3z"/>
<path d="M4930 4691 c0 -15 -3 -49 -6 -75 -6 -42 -5 -46 15 -46 16 0 21 6 21
25 0 14 6 25 13 25 24 0 37 -24 37 -67 0 -39 2 -43 25 -43 24 0 25 -3 25 -55
0 -59 17 -75 27 -25 3 17 11 29 17 27 7 -2 11 -39 12 -100 l1 -97 -27 0 c-27
0 -28 -2 -33 -62 -8 -86 -9 -272 -2 -301 5 -18 30 -37 94 -71 49 -25 94 -46
101 -46 10 0 12 60 9 292 -4 273 -3 293 14 296 9 2 31 -8 47 -22 16 -13 38
-27 47 -31 10 -3 28 -22 41 -41 26 -42 30 -122 7 -158 -13 -20 -14 -30 -3 -67
11 -41 17 -312 7 -367 -3 -16 3 -27 21 -36 51 -28 110 -49 118 -42 4 4 9 130
12 279 l5 272 26 -3 c27 -3 55 20 44 38 -3 5 -20 10 -36 10 -37 0 -160 76
-153 94 6 15 -36 49 -74 60 -12 4 -26 16 -32 26 -5 10 -24 21 -42 24 -18 4
-64 26 -103 51 -38 24 -85 52 -102 61 -27 14 -33 24 -33 49 0 37 -38 82 -77
91 -16 4 -26 16 -30 35 -7 38 -33 38 -33 0z m258 -560 c2 -256 1 -272 -15
-269 -17 3 -18 24 -21 263 -1 143 0 266 3 273 3 8 11 12 18 10 9 -4 13 -70 15
-277z m312 -27 c0 -65 -3 -84 -14 -84 -20 0 -26 23 -26 104 0 78 5 92 27 75 9
-8 13 -37 13 -95z m-386 49 c3 -21 6 -86 6 -145 0 -101 -1 -108 -20 -108 -19
0 -20 7 -20 138 0 76 3 142 7 145 13 14 21 6 27 -30z m381 -338 c0 -118 -2
-140 -15 -140 -13 0 -15 24 -18 143 -2 133 -1 143 15 140 16 -3 18 -17 18
-143z"/>
<path d="M4842 4638 c-15 -15 -16 -58 -1 -58 16 0 38 31 39 53 0 20 -20 23
-38 5z"/>
<path d="M1695 4574 c-38 -14 -74 -31 -80 -38 -5 -7 -18 -15 -28 -19 -16 -6
-18 -22 -17 -176 1 -93 4 -171 6 -174 2 -2 32 5 67 16 34 11 85 27 112 36 86
28 48 44 -57 25 l-38 -6 0 131 c0 117 2 132 18 137 80 26 122 48 122 64 0 14
-22 33 -33 29 -1 0 -33 -12 -72 -25z"/>
<path d="M3473 4504 c-7 -18 11 -39 26 -30 17 11 13 46 -4 46 -9 0 -18 -7 -22
-16z"/>
<path d="M4500 4483 c-35 -13 -66 -25 -67 -27 -3 -3 -6 -230 -4 -263 2 -24 93
-4 119 26 63 73 62 69 62 147 0 71 -19 145 -37 143 -4 -1 -37 -12 -73 -26z
m70 -70 c0 -21 3 -55 6 -75 7 -41 -6 -50 -32 -23 -25 25 -32 17 -31 -32 2 -42
-1 -48 -20 -51 -29 -4 -36 24 -28 107 8 80 13 89 51 101 50 14 54 12 54 -27z"/>
<path d="M1930 4045 c0 -28 4 -35 20 -35 16 0 20 7 20 35 0 28 -4 35 -20 35
-16 0 -20 -7 -20 -35z"/>
<path d="M1682 3858 l-64 -21 3 -156 4 -156 -28 -13 c-26 -13 -36 -35 -19 -46
5 -3 31 1 58 9 27 8 75 19 107 25 46 9 57 15 57 31 0 21 -15 23 -74 10 -65
-16 -66 -14 -66 130 l0 128 29 15 c16 9 47 18 70 22 31 5 41 11 41 25 0 25
-37 24 -118 -3z"/>
<path d="M2935 3855 c-3 -8 -7 -21 -9 -28 -2 -7 -64 -28 -139 -47 -119 -30
-138 -33 -160 -21 -14 7 -30 10 -36 7 -18 -11 -13 -34 9 -41 30 -9 40 -65 40
-220 0 -191 1 -187 -71 -183 -32 1 -61 0 -65 -4 -3 -4 1 -23 10 -42 9 -19 16
-48 16 -65 0 -42 22 -51 79 -34 49 15 83 22 231 47 52 9 107 21 122 27 31 13
43 47 23 69 -8 9 -15 29 -15 43 0 40 -28 35 -32 -5 -3 -31 -6 -33 -52 -40 -28
-4 -53 -5 -58 -2 -12 8 -10 262 2 285 8 13 21 19 48 19 58 0 82 10 82 32 0 18
-4 20 -32 14 -107 -21 -105 -22 -110 19 -5 47 8 60 76 76 57 12 76 33 76 84 0
28 -27 35 -35 10z m-167 -147 c19 -19 15 -66 -7 -78 -33 -17 -61 -12 -73 15
-22 48 43 100 80 63z m6 -144 c3 -9 6 -71 6 -139 0 -119 -1 -123 -22 -129 -39
-10 -66 -7 -72 10 -12 32 -6 204 8 239 12 29 20 35 44 35 18 0 32 -6 36 -16z"/>
<path d="M5611 3613 c0 -195 4 -229 29 -236 13 -3 17 -11 13 -26 -4 -16 -1
-21 16 -21 11 0 21 6 21 14 0 16 57 38 161 61 42 10 82 21 89 25 13 8 26 146
16 184 -4 16 -21 34 -44 46 -20 11 -44 24 -52 29 -32 20 -212 91 -230 91 -17
0 -19 -10 -19 -167z m164 68 c28 -13 70 -32 95 -45 l45 -22 3 -67 c2 -42 -1
-67 -8 -67 -11 0 -135 55 -160 71 -8 5 -23 12 -32 15 -15 5 -18 18 -18 68 0
60 5 80 19 72 3 -2 29 -13 56 -25z"/>
<path d="M490 3705 c0 -18 5 -25 20 -25 21 0 24 8 14 34 -10 25 -34 19 -34 -9z"/>
<path d="M5070 3665 c-8 -10 -7 -17 5 -27 46 -38 45 -36 45 -151 0 -134 -5
-153 -36 -161 -46 -12 -26 -34 54 -60 100 -34 118 -34 125 2 9 45 -5 321 -17
331 -6 5 -46 25 -88 44 -63 29 -79 33 -88 22z m120 -227 c0 -127 -2 -139 -17
-136 -16 3 -18 19 -21 133 -3 141 0 158 23 149 12 -5 15 -29 15 -146z"/>
<path d="M4882 3638 c-24 -24 -14 -40 21 -33 41 9 47 13 47 31 0 17 -51 19
-68 2z"/>
<path d="M5419 3479 c-10 -6 -11 -13 -4 -26 11 -21 12 -232 1 -279 l-8 -31 70
-22 c39 -11 75 -21 81 -21 17 0 15 316 -1 327 -49 30 -127 60 -139 52z m75
-75 c3 -9 6 -64 6 -124 0 -83 -3 -109 -14 -113 -8 -3 -17 -3 -20 0 -3 4 -6 62
-6 130 0 98 3 123 14 123 8 0 17 -7 20 -16z"/>
<path d="M3055 3450 c-8 -14 3 -30 21 -30 8 0 14 9 14 20 0 21 -24 28 -35 10z"/>
<path d="M5630 3190 c-13 -8 -15 -61 -17 -367 -1 -197 -2 -366 -2 -375 -1 -23
-48 -24 -117 -3 -71 21 -88 20 -80 -7 10 -42 16 -298 6 -298 -15 0 -12 -47 3
-53 8 -3 44 -8 80 -12 l67 -7 0 161 0 162 38 -3 37 -3 3 -71 c2 -58 -1 -75
-15 -90 -15 -15 -18 -37 -19 -138 -2 -184 3 -166 -50 -166 -25 0 -65 5 -90 11
-26 7 -49 8 -53 3 -5 -5 -4 -76 1 -158 8 -129 7 -151 -7 -166 -21 -23 -5 -35
65 -47 90 -14 86 -20 94 131 4 79 2 144 -3 159 -11 29 5 41 44 31 19 -5 25
-14 27 -42 3 -35 5 -37 41 -40 37 -3 52 13 22 24 -20 8 -21 84 -1 84 8 0 16
-7 20 -15 11 -30 36 -17 36 20 0 21 5 36 13 37 6 0 17 2 22 3 6 1 37 5 71 9
33 4 67 11 74 16 18 11 26 143 12 181 -12 31 -43 39 -177 48 -88 6 -90 7 -90
31 0 23 4 25 55 30 48 4 55 8 58 28 3 21 0 22 -57 22 l-61 0 0 54 c0 81 9 86
145 86 103 0 115 2 125 19 14 28 13 144 -2 162 -15 18 -146 57 -217 66 l-46 5
3 54 c2 30 5 54 7 54 2 0 30 7 62 16 32 9 87 24 123 34 74 20 77 25 79 137 1
64 -5 93 -20 93 -8 0 -39 13 -124 51 -39 17 -138 49 -154 49 -9 0 -23 -5 -31
-10z m136 -65 c10 -8 26 -15 35 -15 14 0 57 -17 99 -39 16 -9 28 -131 13 -131
-10 0 -88 28 -111 39 -9 5 -37 15 -62 23 l-45 15 -3 61 -3 62 29 0 c15 0 37
-7 48 -15z m41 -475 c48 -12 93 -26 100 -32 8 -6 13 -32 13 -65 l0 -55 -47 6
c-27 3 -78 8 -115 12 l-66 6 -4 74 c-4 87 -10 84 119 54z m-312 -385 c0 -118
-2 -140 -15 -140 -13 0 -15 24 -18 143 -2 133 -1 143 15 140 16 -3 18 -17 18
-143z m310 -96 c50 -6 96 -16 103 -22 9 -7 12 -30 10 -71 -3 -70 8 -67 -145
-45 l-83 11 0 69 c0 49 4 69 13 69 6 0 53 -5 102 -11z m-307 -422 c2 -132 2
-137 -18 -137 -19 0 -20 6 -20 141 0 128 2 140 18 137 15 -3 17 -19 20 -141z"/>
<path d="M3357 2987 c-6 -16 -6 -16 -180 -46 -83 -14 -126 -17 -144 -10 -39
15 -43 11 -40 -38 1 -27 -1 -59 -5 -73 -10 -34 23 -90 52 -90 20 0 20 -5 18
-162 l-3 -163 -32 3 c-27 2 -33 -2 -33 -17 0 -10 -7 -24 -16 -31 -9 -8 -14
-25 -12 -44 3 -28 6 -31 38 -30 102 1 376 29 382 38 4 6 8 26 8 44 0 35 0 35
-92 32 -60 -2 -60 -2 -56 200 l3 155 59 12 c104 20 97 54 -9 36 l-55 -10 0 53
c0 58 -1 57 77 69 45 7 77 34 71 61 -4 22 -24 29 -31 11z m-162 -147 l0 -54
-39 -8 c-48 -10 -66 3 -66 47 0 44 39 76 85 72 17 -2 20 -9 20 -57z m3 -272
c2 -150 2 -158 -18 -168 -12 -6 -35 -10 -53 -8 l-32 3 1 152 c1 84 4 160 8
168 4 12 17 15 48 13 l43 -3 3 -157z"/>
<path d="M5410 2962 c0 -10 3 -21 6 -25 5 -5 6 -208 1 -286 -2 -21 6 -28 61
-49 34 -13 69 -21 77 -18 12 4 15 34 15 168 0 90 -4 168 -8 173 -9 14 -109 55
-133 55 -12 0 -19 -7 -19 -18z m88 -180 c2 -127 2 -132 -18 -132 -19 0 -20 6
-20 136 0 124 2 135 18 132 15 -3 17 -19 20 -136z"/>
<path d="M4150 2939 c0 -20 -3 -21 -37 -14 -97 18 -93 19 -93 -3 0 -13 10 -24
30 -30 32 -12 44 -39 38 -88 -3 -25 -7 -29 -33 -29 -16 0 -31 -3 -32 -7 -6
-17 -2 -28 9 -28 7 0 32 -7 55 -16 l43 -17 0 -119 c0 -94 3 -120 15 -124 26
-10 33 4 23 53 -5 27 -9 117 -9 200 0 138 2 155 20 174 14 15 17 27 12 43 -11
30 -41 34 -41 5z"/>
<path d="M2493 2844 c-28 -20 -141 -39 -225 -38 -77 1 -84 -8 -38 -46 l29 -25
2 -187 c1 -102 -2 -191 -5 -197 -4 -6 -16 -11 -27 -11 -13 0 -19 -7 -19 -22 0
-12 -12 -32 -27 -44 -25 -20 -26 -23 -14 -53 8 -17 15 -31 18 -31 2 0 34 6 71
14 37 8 110 17 162 20 81 5 98 9 113 28 31 37 19 52 -48 58 l-60 5 0 159 0
160 50 10 c65 14 63 30 -3 34 l-53 3 3 47 c3 45 4 46 44 57 50 12 74 31 74 56
0 23 -17 24 -47 3z m-113 -128 c0 -46 -9 -56 -56 -56 -21 0 -24 4 -24 40 0 42
16 59 58 60 19 0 22 -5 22 -44z m-2 -253 l-3 -158 -37 -3 -38 -3 0 154 c0 84
3 157 7 160 3 4 21 7 40 7 l34 0 -3 -157z"/>
<path d="M4438 2848 c0 -7 -2 -20 -3 -28 -2 -21 15 -52 39 -71 18 -14 21 -25
18 -59 -2 -23 -10 -44 -18 -47 -19 -7 -18 -32 1 -39 12 -5 15 -32 15 -160 0
-99 -4 -154 -10 -154 -6 0 -13 14 -16 30 -4 17 -12 30 -19 30 -21 0 -26 -30
-11 -61 8 -16 12 -38 9 -49 -8 -31 15 -50 61 -50 22 -1 59 -7 81 -15 49 -18
87 -19 103 -3 15 15 15 32 2 80 -8 27 -18 39 -40 47 l-30 10 1 153 c1 188 7
237 34 252 11 6 23 16 27 21 13 17 9 45 -7 45 -8 0 -15 -7 -15 -15 0 -20 -24
-19 -101 6 -78 26 -89 35 -89 65 0 25 -29 35 -32 12z m130 -130 c14 -14 16
-98 3 -98 -32 0 -41 14 -41 61 0 50 13 62 38 37z m7 -155 c4 -10 9 -73 12
-140 6 -128 0 -153 -37 -153 -14 0 -18 13 -24 77 -3 43 -3 112 0 155 6 65 10
78 24 78 10 0 21 -8 25 -17z"/>
<path d="M1681 2706 l-65 -11 3 -163 c3 -159 2 -164 -19 -169 -27 -7 -22 -39
5 -36 207 27 215 29 200 53 -5 8 -30 11 -74 8 l-66 -3 -3 134 c-1 74 1 138 5
142 5 5 35 11 68 15 57 7 80 18 69 36 -7 10 -43 9 -123 -6z"/>
<path d="M490 2680 c0 -13 7 -20 20 -20 13 0 20 7 20 20 0 13 -7 20 -20 20
-13 0 -20 -7 -20 -20z"/>
<path d="M5056 2513 c-8 -50 -6 -301 3 -332 6 -22 17 -27 95 -44 66 -14 91
-16 100 -7 13 13 11 317 -3 353 -8 20 -24 28 -95 46 -47 11 -87 21 -89 21 -3
0 -7 -17 -11 -37z m62 -171 c2 -147 2 -152 -18 -152 -19 0 -20 6 -20 139 0
144 4 175 24 168 7 -2 12 -54 14 -155z m72 -12 c0 -143 -1 -150 -20 -150 -19
0 -20 7 -20 150 0 143 1 150 20 150 19 0 20 -7 20 -150z"/>
<path d="M4050 2401 c0 -16 6 -21 26 -21 33 0 30 33 -4 38 -17 3 -22 -2 -22
-17z"/>
<path d="M490 2155 c0 -16 6 -25 15 -25 9 0 15 9 15 25 0 16 -6 25 -15 25 -9
0 -15 -9 -15 -25z"/>
<path d="M4397 2056 c-4 -10 8 -15 44 -20 27 -4 56 -9 64 -12 10 -4 15 0 15
14 0 14 -9 21 -31 26 -51 10 -86 7 -92 -8z"/>
<path d="M5065 1983 c-3 -9 -4 -17 -3 -17 2 -1 15 -7 29 -13 l25 -11 0 -148
-1 -148 -25 -6 c-14 -3 -26 -14 -28 -23 -3 -14 5 -17 51 -17 30 0 75 -3 101
-6 37 -6 46 -4 46 8 0 9 -9 18 -21 21 -20 5 -20 10 -14 99 5 60 12 97 21 104
10 8 13 30 11 75 l-3 64 -49 11 c-98 21 -133 23 -140 7z m123 -190 c-3 -131
-5 -148 -20 -151 -17 -3 -18 9 -18 147 0 145 1 151 20 151 20 0 20 -5 18 -147z"/>
<path d="M4420 1966 c0 -13 20 -26 41 -26 5 0 9 9 9 20 0 15 -7 20 -25 20 -15
0 -25 -6 -25 -14z"/>
<path d="M4020 1832 c0 -16 9 -24 33 -30 31 -8 32 -10 35 -65 3 -51 1 -57 -17
-57 -29 0 -51 -11 -51 -25 0 -18 23 -25 80 -25 47 0 47 0 54 38 3 20 6 57 6
80 0 35 4 45 20 49 11 3 20 13 20 23 0 16 -8 18 -47 17 -27 -1 -67 3 -90 7
-40 8 -43 7 -43 -12z"/>
<path d="M4460 1796 c-10 -13 -8 -17 14 -27 23 -11 26 -18 26 -65 0 -44 -3
-54 -20 -59 -24 -8 -26 -24 -4 -40 17 -12 17 -22 14 -337 0 -12 -8 -18 -25
-18 -22 0 -25 -4 -25 -34 0 -19 4 -37 9 -40 5 -3 65 -3 134 1 l125 6 0 64 c0
47 -4 63 -14 63 -8 0 -14 -4 -14 -10 0 -5 -9 -10 -19 -10 -18 0 -19 10 -20
155 -1 148 0 155 19 155 26 0 26 20 0 27 -18 5 -19 11 -13 62 3 31 10 58 15
59 13 5 38 32 38 41 0 4 -24 7 -52 7 -29 -1 -80 3 -114 7 -49 6 -63 5 -74 -7z
m128 -99 l3 -58 -28 3 c-27 3 -28 6 -31 61 l-3 58 28 -3 c27 -3 28 -6 31 -61z
m14 -222 c9 -146 0 -218 -25 -223 -42 -8 -47 12 -47 185 l0 164 33 -3 32 -3 7
-120z"/>
<path d="M5627 1719 c-16 -10 -18 -24 -15 -137 1 -70 -1 -133 -6 -140 -6 -10
-33 -13 -99 -11 -68 1 -92 -2 -95 -11 -3 -8 1 -64 8 -126 8 -74 9 -118 2 -129
-5 -10 -7 -26 -5 -36 5 -16 15 -19 67 -19 35 0 67 5 74 12 8 8 12 54 12 140 0
110 2 128 16 128 8 0 22 -7 31 -15 19 -19 23 -15 32 27 6 28 12 33 38 36 l31
3 -6 -112 -5 -112 39 8 c21 4 42 9 46 11 4 3 7 49 7 103 -1 137 -2 136 78 147
78 10 80 14 82 125 1 94 -3 98 -129 104 -58 3 -123 7 -145 10 -22 2 -48 -1
-58 -6z m151 -56 c4 -28 19 -30 27 -3 5 16 15 20 48 20 63 0 68 -7 65 -81 l-3
-64 -50 0 c-46 0 -50 2 -53 25 -9 80 -32 98 -32 25 l0 -45 -40 0 -40 0 0 68
c0 38 3 72 7 76 4 4 21 6 38 4 22 -2 31 -9 33 -25z m-280 -390 c-2 -97 -6
-118 -18 -118 -12 0 -16 21 -18 118 -3 112 -2 117 18 117 20 0 21 -5 18 -117z"/>
<path d="M655 1451 l-30 -6 2 -142 c1 -132 0 -143 -18 -148 -10 -4 -19 -13
-19 -21 0 -21 175 -20 184 1 7 20 -24 35 -73 35 l-41 0 1 68 c1 37 4 92 7 122
l7 55 36 -3 c23 -2 41 3 49 13 7 9 11 17 9 19 -9 9 -86 14 -114 7z"/>
<path d="M5017 1420 c-5 -21 9 -25 76 -20 l28 2 -3 -133 -3 -133 -50 -11 c-35
-7 -51 -15 -53 -29 -4 -17 1 -17 50 -10 29 5 73 7 98 6 62 -4 110 6 110 23 0
7 -10 15 -22 17 -18 2 -23 9 -22 31 3 146 3 147 25 147 18 0 20 5 17 43 l-3
42 38 3 c28 2 37 8 37 21 0 17 -13 19 -159 20 -151 1 -159 0 -164 -19z m173
-150 c0 -123 -1 -130 -20 -130 -19 0 -20 7 -20 130 0 123 1 130 20 130 19 0
20 -7 20 -130z"/>
<path d="M5605 1100 c-3 -5 1 -10 9 -10 9 0 16 5 16 10 0 6 -4 10 -9 10 -6 0
-13 -4 -16 -10z"/>
<path d="M4177 1023 c-10 -9 -9 -43 1 -43 12 0 32 23 32 37 0 14 -22 18 -33 6z"/>
<path d="M5651 1003 c-49 -4 -53 -6 -47 -26 3 -12 6 -39 6 -59 0 -34 3 -38 25
-38 27 0 32 18 15 51 -9 16 -7 21 17 30 15 5 45 9 67 7 36 -3 41 -6 42 -29 1
-38 12 -49 44 -49 53 0 60 8 60 66 l0 54 -87 -2 c-49 -1 -112 -3 -142 -5z
m189 -48 c0 -16 -6 -25 -15 -25 -15 0 -21 31 -8 43 13 14 23 6 23 -18z"/>
<path d="M490 950 c0 -57 24 -71 35 -20 5 25 12 30 35 30 23 0 27 3 23 20 -4
16 -14 20 -49 20 l-44 0 0 -50z"/>
</g>
</svg>
