<?xml version="1.0" encoding="UTF-8"?>
<svg xmlns="http://www.w3.org/2000/svg" xmlns:xlink="http://www.w3.org/1999/xlink" width="400px" height="400px" viewBox="0 0 400 400" version="1.1">
<g id="surface1">
<path style=" stroke:none;fill-rule:evenodd;fill:rgb(26.274511%,26.274511%,26.274511%);fill-opacity:1;" d="M 395.152344 218.117188 L 305.507812 126.210938 L 305.507812 59.226562 L 282.730469 59.742188 L 282.730469 100.398438 L 223.578125 41.058594 C 217.035156 34.566406 206.492188 34.566406 199.976562 41.058594 L 28.375 218.140625 C 21.90625 224.660156 21.929688 235.246094 28.375 241.71875 C 34.871094 248.210938 45.480469 248.210938 51.976562 241.695312 L 211.765625 81.929688 L 371.601562 241.695312 C 374.847656 244.941406 379.082031 246.589844 383.363281 246.589844 C 387.625 246.589844 391.859375 244.988281 395.152344 241.71875 C 401.601562 235.199219 401.601562 224.589844 395.152344 218.117188 Z M 395.152344 218.117188 "/>
<path style=" stroke:none;fill-rule:evenodd;fill:rgb(26.274511%,26.274511%,26.274511%);fill-opacity:1;" d="M 95.128906 236.046875 L 95.128906 369.929688 C 95.128906 379.199219 100.257812 388.417969 108.472656 388.417969 L 162.046875 388.417969 L 163.554688 294.464844 L 259.410156 294.464844 L 259.363281 388.417969 L 313.554688 388.417969 C 321.765625 388.417969 328.421875 379.222656 328.421875 369.929688 L 328.421875 236.023438 L 211.765625 120.589844 Z M 95.128906 236.046875 "/>
</g>
</svg>
